%TF.GenerationSoftware,KiCad,Pcbnew,10.0.1*%
%TF.CreationDate,2026-09-03T17:48:08+08:00*%
%TF.ProjectId,supergrafx-motherboard,73757065-7267-4726-9166-782d6d6f7468,rev?*%
%TF.SameCoordinates,Original*%
%TF.FileFunction,Paste,Bot*%
%TF.FilePolarity,Positive*%
%FSLAX46Y46*%
G04 Gerber Fmt 4.6, Leading zero omitted, Abs format (unit mm)*
G04 Created by KiCad (PCBNEW 10.0.1) date 2026-09-03 17:48:08*
%MOMM*%
%LPD*%
G01*
G04 APERTURE LIST*
G04 Aperture macros list*
%AMRoundRect*
0 Rectangle with rounded corners*
0 $1 Rounding radius*
0 $2 $3 $4 $5 $6 $7 $8 $9 X,Y pos of 4 corners*
0 Add a 4 corners polygon primitive as box body*
4,1,4,$2,$3,$4,$5,$6,$7,$8,$9,$2,$3,0*
0 Add four circle primitives for the rounded corners*
1,1,$1+$1,$2,$3*
1,1,$1+$1,$4,$5*
1,1,$1+$1,$6,$7*
1,1,$1+$1,$8,$9*
0 Add four rect primitives between the rounded corners*
20,1,$1+$1,$2,$3,$4,$5,0*
20,1,$1+$1,$4,$5,$6,$7,0*
20,1,$1+$1,$6,$7,$8,$9,0*
20,1,$1+$1,$8,$9,$2,$3,0*%
G04 Aperture macros list end*
%ADD10C,7.000000*%
%ADD11RoundRect,0.250000X0.650000X-0.412500X0.650000X0.412500X-0.650000X0.412500X-0.650000X-0.412500X0*%
%ADD12RoundRect,0.150000X0.150000X-0.587500X0.150000X0.587500X-0.150000X0.587500X-0.150000X-0.587500X0*%
%ADD13RoundRect,0.250000X-0.650000X0.412500X-0.650000X-0.412500X0.650000X-0.412500X0.650000X0.412500X0*%
%ADD14RoundRect,0.250000X-0.625000X0.400000X-0.625000X-0.400000X0.625000X-0.400000X0.625000X0.400000X0*%
%ADD15RoundRect,0.250000X0.625000X-0.400000X0.625000X0.400000X-0.625000X0.400000X-0.625000X-0.400000X0*%
%ADD16RoundRect,0.250000X-0.412500X-0.650000X0.412500X-0.650000X0.412500X0.650000X-0.412500X0.650000X0*%
%ADD17RoundRect,0.250000X0.412500X0.650000X-0.412500X0.650000X-0.412500X-0.650000X0.412500X-0.650000X0*%
%ADD18RoundRect,0.249999X1.075001X-0.450001X1.075001X0.450001X-1.075001X0.450001X-1.075001X-0.450001X0*%
G04 APERTURE END LIST*
D10*
%TO.C,HS1*%
X122000000Y-119000000D03*
X159000000Y-177000000D03*
X162000000Y-119000000D03*
%TD*%
D11*
%TO.C,C155*%
X267250000Y-114562500D03*
X267250000Y-111437500D03*
%TD*%
D12*
%TO.C,D101*%
X200450000Y-209437500D03*
X198550000Y-209437500D03*
X199500000Y-207562500D03*
%TD*%
D13*
%TO.C,C134*%
X157750000Y-199437500D03*
X157750000Y-202562500D03*
%TD*%
D14*
%TO.C,R162*%
X279750000Y-167700000D03*
X279750000Y-170800000D03*
%TD*%
%TO.C,R108*%
X214500000Y-198950000D03*
X214500000Y-202050000D03*
%TD*%
D15*
%TO.C,R184*%
X298000000Y-210050000D03*
X298000000Y-206950000D03*
%TD*%
D14*
%TO.C,R171*%
X316000000Y-137950000D03*
X316000000Y-141050000D03*
%TD*%
%TO.C,R174*%
X322000000Y-137950000D03*
X322000000Y-141050000D03*
%TD*%
%TO.C,R169*%
X310000000Y-137950000D03*
X310000000Y-141050000D03*
%TD*%
%TO.C,R104*%
X224500000Y-198950000D03*
X224500000Y-202050000D03*
%TD*%
D12*
%TO.C,Q105*%
X310950000Y-134437500D03*
X309050000Y-134437500D03*
X310000000Y-132562500D03*
%TD*%
D11*
%TO.C,C129*%
X155750000Y-97562500D03*
X155750000Y-94437500D03*
%TD*%
%TO.C,C171*%
X273750000Y-142562500D03*
X273750000Y-139437500D03*
%TD*%
D14*
%TO.C,R111*%
X193500000Y-215200000D03*
X193500000Y-218300000D03*
%TD*%
D11*
%TO.C,C135*%
X152750000Y-199062500D03*
X152750000Y-195937500D03*
%TD*%
D13*
%TO.C,C172*%
X291000000Y-153937500D03*
X291000000Y-157062500D03*
%TD*%
D14*
%TO.C,R109*%
X212000000Y-198950000D03*
X212000000Y-202050000D03*
%TD*%
D11*
%TO.C,C130*%
X145250000Y-113562500D03*
X145250000Y-110437500D03*
%TD*%
D13*
%TO.C,C153*%
X240250000Y-78687500D03*
X240250000Y-81812500D03*
%TD*%
D15*
%TO.C,R185*%
X306000000Y-210050000D03*
X306000000Y-206950000D03*
%TD*%
D11*
%TO.C,C142*%
X108000000Y-167562500D03*
X108000000Y-164437500D03*
%TD*%
%TO.C,C209*%
X199500000Y-202062500D03*
X199500000Y-198937500D03*
%TD*%
%TO.C,C156*%
X235500000Y-96062500D03*
X235500000Y-92937500D03*
%TD*%
D15*
%TO.C,R165*%
X298000000Y-141050000D03*
X298000000Y-137950000D03*
%TD*%
D11*
%TO.C,C165*%
X307500000Y-108562500D03*
X307500000Y-105437500D03*
%TD*%
%TO.C,C206*%
X207000000Y-202062500D03*
X207000000Y-198937500D03*
%TD*%
D16*
%TO.C,C225*%
X191437500Y-194250000D03*
X194562500Y-194250000D03*
%TD*%
D11*
%TO.C,C207*%
X204500000Y-202062500D03*
X204500000Y-198937500D03*
%TD*%
D15*
%TO.C,R138*%
X302000000Y-114550000D03*
X302000000Y-111450000D03*
%TD*%
D13*
%TO.C,C170*%
X276750000Y-167687500D03*
X276750000Y-170812500D03*
%TD*%
D14*
%TO.C,R180*%
X326000000Y-206950000D03*
X326000000Y-210050000D03*
%TD*%
%TO.C,R105*%
X222000000Y-198950000D03*
X222000000Y-202050000D03*
%TD*%
%TO.C,R122*%
X291500000Y-128950000D03*
X291500000Y-132050000D03*
%TD*%
D15*
%TO.C,R187*%
X318000000Y-210050000D03*
X318000000Y-206950000D03*
%TD*%
D12*
%TO.C,Q102*%
X292450000Y-125437500D03*
X290550000Y-125437500D03*
X291500000Y-123562500D03*
%TD*%
D15*
%TO.C,R101*%
X184000000Y-110550000D03*
X184000000Y-107450000D03*
%TD*%
%TO.C,R183*%
X330000000Y-210050000D03*
X330000000Y-206950000D03*
%TD*%
D11*
%TO.C,C136*%
X144750000Y-199062500D03*
X144750000Y-195937500D03*
%TD*%
D17*
%TO.C,C227*%
X274062500Y-107000000D03*
X270937500Y-107000000D03*
%TD*%
D11*
%TO.C,C202*%
X242750000Y-202062500D03*
X242750000Y-198937500D03*
%TD*%
%TO.C,C138*%
X104250000Y-142062500D03*
X104250000Y-138937500D03*
%TD*%
%TO.C,C132*%
X156000000Y-212062500D03*
X156000000Y-208937500D03*
%TD*%
D15*
%TO.C,R113*%
X267250000Y-100050000D03*
X267250000Y-96950000D03*
%TD*%
D14*
%TO.C,R103*%
X227000000Y-198950000D03*
X227000000Y-202050000D03*
%TD*%
D11*
%TO.C,C128*%
X108000000Y-210062500D03*
X108000000Y-206937500D03*
%TD*%
D15*
%TO.C,R181*%
X344000000Y-210050000D03*
X344000000Y-206950000D03*
%TD*%
%TO.C,R110*%
X259750000Y-164550000D03*
X259750000Y-161450000D03*
%TD*%
%TO.C,R118*%
X248750000Y-69550000D03*
X248750000Y-66450000D03*
%TD*%
%TO.C,R142*%
X310500000Y-102550000D03*
X310500000Y-99450000D03*
%TD*%
D11*
%TO.C,C208*%
X202000000Y-202062500D03*
X202000000Y-198937500D03*
%TD*%
%TO.C,C145*%
X152750000Y-146562500D03*
X152750000Y-143437500D03*
%TD*%
D14*
%TO.C,R121*%
X259750000Y-154950000D03*
X259750000Y-158050000D03*
%TD*%
%TO.C,R160*%
X270750000Y-167700000D03*
X270750000Y-170800000D03*
%TD*%
D15*
%TO.C,R168*%
X307000000Y-141050000D03*
X307000000Y-137950000D03*
%TD*%
%TO.C,R167*%
X304000000Y-141050000D03*
X304000000Y-137950000D03*
%TD*%
D13*
%TO.C,C154*%
X233250000Y-75437500D03*
X233250000Y-78562500D03*
%TD*%
%TO.C,C200*%
X342000000Y-90187500D03*
X342000000Y-93312500D03*
%TD*%
%TO.C,C127*%
X163750000Y-67437500D03*
X163750000Y-70562500D03*
%TD*%
%TO.C,C144*%
X157750000Y-146937500D03*
X157750000Y-150062500D03*
%TD*%
D15*
%TO.C,R141*%
X289750000Y-106050000D03*
X289750000Y-102950000D03*
%TD*%
D13*
%TO.C,C168*%
X270500000Y-154687500D03*
X270500000Y-157812500D03*
%TD*%
%TO.C,C152*%
X233000000Y-92937500D03*
X233000000Y-96062500D03*
%TD*%
D14*
%TO.C,R123*%
X305500000Y-125450000D03*
X305500000Y-128550000D03*
%TD*%
D15*
%TO.C,R143*%
X310500000Y-108550000D03*
X310500000Y-105450000D03*
%TD*%
D12*
%TO.C,Q107*%
X325950000Y-146437500D03*
X324050000Y-146437500D03*
X325000000Y-144562500D03*
%TD*%
D14*
%TO.C,R148*%
X324000000Y-105450000D03*
X324000000Y-108550000D03*
%TD*%
D15*
%TO.C,R166*%
X301000000Y-141050000D03*
X301000000Y-137950000D03*
%TD*%
D11*
%TO.C,C146*%
X144750000Y-146562500D03*
X144750000Y-143437500D03*
%TD*%
D12*
%TO.C,Q106*%
X325950000Y-134437500D03*
X324050000Y-134437500D03*
X325000000Y-132562500D03*
%TD*%
D11*
%TO.C,C169*%
X285000000Y-160062500D03*
X285000000Y-156937500D03*
%TD*%
D15*
%TO.C,R186*%
X314000000Y-210050000D03*
X314000000Y-206950000D03*
%TD*%
%TO.C,R145*%
X313500000Y-108550000D03*
X313500000Y-105450000D03*
%TD*%
%TO.C,R144*%
X313500000Y-96050000D03*
X313500000Y-92950000D03*
%TD*%
D14*
%TO.C,R112*%
X267250000Y-105450000D03*
X267250000Y-108550000D03*
%TD*%
D15*
%TO.C,R164*%
X295000000Y-141050000D03*
X295000000Y-137950000D03*
%TD*%
D11*
%TO.C,C203*%
X240250000Y-202062500D03*
X240250000Y-198937500D03*
%TD*%
%TO.C,C224*%
X187000000Y-232312500D03*
X187000000Y-229187500D03*
%TD*%
D16*
%TO.C,C230*%
X180937500Y-100500000D03*
X184062500Y-100500000D03*
%TD*%
D13*
%TO.C,C220*%
X129250000Y-86187500D03*
X129250000Y-89312500D03*
%TD*%
%TO.C,C160*%
X279750000Y-105437500D03*
X279750000Y-108562500D03*
%TD*%
D11*
%TO.C,C228*%
X254750000Y-67562500D03*
X254750000Y-64437500D03*
%TD*%
D13*
%TO.C,C157*%
X227000000Y-86937500D03*
X227000000Y-90062500D03*
%TD*%
%TO.C,C139*%
X214000000Y-136437500D03*
X214000000Y-139562500D03*
%TD*%
D14*
%TO.C,R120*%
X248750000Y-59950000D03*
X248750000Y-63050000D03*
%TD*%
D13*
%TO.C,C173*%
X291000000Y-147437500D03*
X291000000Y-150562500D03*
%TD*%
D15*
%TO.C,R182*%
X338000000Y-210050000D03*
X338000000Y-206950000D03*
%TD*%
D13*
%TO.C,C143*%
X155750000Y-156937500D03*
X155750000Y-160062500D03*
%TD*%
D11*
%TO.C,C204*%
X237750000Y-202062500D03*
X237750000Y-198937500D03*
%TD*%
D13*
%TO.C,C210*%
X254750000Y-45187500D03*
X254750000Y-48312500D03*
%TD*%
D11*
%TO.C,C161*%
X279750000Y-118562500D03*
X279750000Y-115437500D03*
%TD*%
%TO.C,C205*%
X209500000Y-202062500D03*
X209500000Y-198937500D03*
%TD*%
D15*
%TO.C,R140*%
X289750000Y-98550000D03*
X289750000Y-95450000D03*
%TD*%
D11*
%TO.C,C131*%
X139250000Y-113562500D03*
X139250000Y-110437500D03*
%TD*%
D13*
%TO.C,C141*%
X197000000Y-120937500D03*
X197000000Y-124062500D03*
%TD*%
D15*
%TO.C,R177*%
X287500000Y-201050000D03*
X287500000Y-197950000D03*
%TD*%
D11*
%TO.C,C174*%
X289000000Y-142562500D03*
X289000000Y-139437500D03*
%TD*%
D13*
%TO.C,C201*%
X176000000Y-91437500D03*
X176000000Y-94562500D03*
%TD*%
D15*
%TO.C,R163*%
X338500000Y-176050000D03*
X338500000Y-172950000D03*
%TD*%
%TO.C,R119*%
X248750000Y-56550000D03*
X248750000Y-53450000D03*
%TD*%
D13*
%TO.C,C137*%
X198500000Y-136937500D03*
X198500000Y-140062500D03*
%TD*%
%TO.C,C151*%
X237000000Y-112437500D03*
X237000000Y-115562500D03*
%TD*%
D15*
%TO.C,R146*%
X324000000Y-97550000D03*
X324000000Y-94450000D03*
%TD*%
D16*
%TO.C,C229*%
X194187500Y-65750000D03*
X197312500Y-65750000D03*
%TD*%
D15*
%TO.C,R114*%
X267250000Y-120550000D03*
X267250000Y-117450000D03*
%TD*%
D18*
%TO.C,R173*%
X329947286Y-141899694D03*
X329947286Y-137099694D03*
%TD*%
D11*
%TO.C,C167*%
X335500000Y-176062500D03*
X335500000Y-172937500D03*
%TD*%
D14*
%TO.C,R102*%
X229500000Y-198950000D03*
X229500000Y-202050000D03*
%TD*%
D15*
%TO.C,R172*%
X319000000Y-141050000D03*
X319000000Y-137950000D03*
%TD*%
%TO.C,R175*%
X310500000Y-96050000D03*
X310500000Y-92950000D03*
%TD*%
D11*
%TO.C,C166*%
X327500000Y-160812500D03*
X327500000Y-157687500D03*
%TD*%
D16*
%TO.C,C223*%
X91437500Y-134500000D03*
X94562500Y-134500000D03*
%TD*%
D11*
%TO.C,C226*%
X262750000Y-224812500D03*
X262750000Y-221687500D03*
%TD*%
D13*
%TO.C,C221*%
X99500000Y-97187500D03*
X99500000Y-100312500D03*
%TD*%
D15*
%TO.C,R161*%
X273750000Y-170800000D03*
X273750000Y-167700000D03*
%TD*%
%TO.C,R170*%
X313000000Y-141050000D03*
X313000000Y-137950000D03*
%TD*%
D13*
%TO.C,C140*%
X211500000Y-120937500D03*
X211500000Y-124062500D03*
%TD*%
D14*
%TO.C,R124*%
X302500000Y-125450000D03*
X302500000Y-128550000D03*
%TD*%
D11*
%TO.C,C211*%
X194500000Y-48562500D03*
X194500000Y-45437500D03*
%TD*%
D14*
%TO.C,R107*%
X217000000Y-198950000D03*
X217000000Y-202050000D03*
%TD*%
%TO.C,R106*%
X219500000Y-198950000D03*
X219500000Y-202050000D03*
%TD*%
D11*
%TO.C,C164*%
X307500000Y-102562500D03*
X307500000Y-99437500D03*
%TD*%
D15*
%TO.C,R159*%
X324000000Y-121050000D03*
X324000000Y-117950000D03*
%TD*%
D13*
%TO.C,C222*%
X99500000Y-117187500D03*
X99500000Y-120312500D03*
%TD*%
D15*
%TO.C,R147*%
X274750000Y-71050000D03*
X274750000Y-67950000D03*
%TD*%
%TO.C,R139*%
X299000000Y-114550000D03*
X299000000Y-111450000D03*
%TD*%
D11*
%TO.C,C133*%
X104250000Y-184062500D03*
X104250000Y-180937500D03*
%TD*%
M02*
