%TF.GenerationSoftware,KiCad,Pcbnew,10.0.1*%
%TF.CreationDate,2026-09-03T17:48:08+08:00*%
%TF.ProjectId,supergrafx-motherboard,73757065-7267-4726-9166-782d6d6f7468,rev?*%
%TF.SameCoordinates,Original*%
%TF.FileFunction,Paste,Top*%
%TF.FilePolarity,Positive*%
%FSLAX46Y46*%
G04 Gerber Fmt 4.6, Leading zero omitted, Abs format (unit mm)*
G04 Created by KiCad (PCBNEW 10.0.1) date 2026-09-03 17:48:08*
%MOMM*%
%LPD*%
G01*
G04 APERTURE LIST*
G04 Aperture macros list*
%AMRoundRect*
0 Rectangle with rounded corners*
0 $1 Rounding radius*
0 $2 $3 $4 $5 $6 $7 $8 $9 X,Y pos of 4 corners*
0 Add a 4 corners polygon primitive as box body*
4,1,4,$2,$3,$4,$5,$6,$7,$8,$9,$2,$3,0*
0 Add four circle primitives for the rounded corners*
1,1,$1+$1,$2,$3*
1,1,$1+$1,$4,$5*
1,1,$1+$1,$6,$7*
1,1,$1+$1,$8,$9*
0 Add four rect primitives between the rounded corners*
20,1,$1+$1,$2,$3,$4,$5,0*
20,1,$1+$1,$4,$5,$6,$7,0*
20,1,$1+$1,$6,$7,$8,$9,0*
20,1,$1+$1,$8,$9,$2,$3,0*%
G04 Aperture macros list end*
%ADD10RoundRect,0.200000X-0.200000X-1.200000X0.200000X-1.200000X0.200000X1.200000X-0.200000X1.200000X0*%
%ADD11RoundRect,0.162500X-0.162500X-1.237500X0.162500X-1.237500X0.162500X1.237500X-0.162500X1.237500X0*%
%ADD12RoundRect,0.160000X-0.240000X-1.440000X0.240000X-1.440000X0.240000X1.440000X-0.240000X1.440000X0*%
%ADD13RoundRect,0.100000X-0.150000X-1.500000X0.150000X-1.500000X0.150000X1.500000X-0.150000X1.500000X0*%
%ADD14RoundRect,0.160000X1.440000X-0.240000X1.440000X0.240000X-1.440000X0.240000X-1.440000X-0.240000X0*%
%ADD15RoundRect,0.100000X1.500000X-0.150000X1.500000X0.150000X-1.500000X0.150000X-1.500000X-0.150000X0*%
G04 APERTURE END LIST*
D10*
%TO.C,IC106*%
X107920000Y-169650000D03*
D11*
X109265000Y-169650000D03*
X110535000Y-169650000D03*
X111805000Y-169650000D03*
X113075000Y-169650000D03*
X114345000Y-169650000D03*
X115615000Y-169650000D03*
X116885000Y-169650000D03*
X118155000Y-169650000D03*
X119425000Y-169650000D03*
X120695000Y-169650000D03*
X121965000Y-169650000D03*
X123235000Y-169650000D03*
D10*
X124580000Y-169650000D03*
X124580000Y-159350000D03*
D11*
X123235000Y-159350000D03*
X121965000Y-159350000D03*
X120695000Y-159350000D03*
X119425000Y-159350000D03*
X118155000Y-159350000D03*
X116885000Y-159350000D03*
X115615000Y-159350000D03*
X114345000Y-159350000D03*
X113075000Y-159350000D03*
X111805000Y-159350000D03*
X110535000Y-159350000D03*
X109265000Y-159350000D03*
D10*
X107920000Y-159350000D03*
%TD*%
%TO.C,IC110*%
X231170000Y-119150000D03*
D11*
X232515000Y-119150000D03*
X233785000Y-119150000D03*
X235055000Y-119150000D03*
X236325000Y-119150000D03*
X237595000Y-119150000D03*
X238865000Y-119150000D03*
X240135000Y-119150000D03*
X241405000Y-119150000D03*
X242675000Y-119150000D03*
X243945000Y-119150000D03*
X245215000Y-119150000D03*
X246485000Y-119150000D03*
D10*
X247830000Y-119150000D03*
X247830000Y-108850000D03*
D11*
X246485000Y-108850000D03*
X245215000Y-108850000D03*
X243945000Y-108850000D03*
X242675000Y-108850000D03*
X241405000Y-108850000D03*
X240135000Y-108850000D03*
X238865000Y-108850000D03*
X237595000Y-108850000D03*
X236325000Y-108850000D03*
X235055000Y-108850000D03*
X233785000Y-108850000D03*
X232515000Y-108850000D03*
D10*
X231170000Y-108850000D03*
%TD*%
%TO.C,IC107*%
X102920000Y-149550000D03*
D11*
X104265000Y-149550000D03*
X105535000Y-149550000D03*
X106805000Y-149550000D03*
X108075000Y-149550000D03*
X109345000Y-149550000D03*
X110615000Y-149550000D03*
X111885000Y-149550000D03*
X113155000Y-149550000D03*
X114425000Y-149550000D03*
X115695000Y-149550000D03*
X116965000Y-149550000D03*
X118235000Y-149550000D03*
D10*
X119580000Y-149550000D03*
X119580000Y-139250000D03*
D11*
X118235000Y-139250000D03*
X116965000Y-139250000D03*
X115695000Y-139250000D03*
X114425000Y-139250000D03*
X113155000Y-139250000D03*
X111885000Y-139250000D03*
X110615000Y-139250000D03*
X109345000Y-139250000D03*
X108075000Y-139250000D03*
X106805000Y-139250000D03*
X105535000Y-139250000D03*
X104265000Y-139250000D03*
D10*
X102920000Y-139250000D03*
%TD*%
D12*
%TO.C,IC108*%
X142150000Y-157850000D03*
D13*
X143100000Y-157850000D03*
X143900000Y-157850000D03*
X144700000Y-157850000D03*
X145500000Y-157850000D03*
X146300000Y-157850000D03*
X147100000Y-157850000D03*
X147900000Y-157850000D03*
X148700000Y-157850000D03*
X149500000Y-157850000D03*
X150300000Y-157850000D03*
X151100000Y-157850000D03*
X151900000Y-157850000D03*
X152700000Y-157850000D03*
X153500000Y-157850000D03*
X154300000Y-157850000D03*
X155100000Y-157850000D03*
X155900000Y-157850000D03*
X156700000Y-157850000D03*
X157500000Y-157850000D03*
X158300000Y-157850000D03*
X159100000Y-157850000D03*
X159900000Y-157850000D03*
D12*
X160850000Y-157850000D03*
D14*
X163350000Y-155150000D03*
D15*
X163350000Y-154200000D03*
X163350000Y-153400000D03*
X163350000Y-152600000D03*
X163350000Y-151800000D03*
X163350000Y-151000000D03*
X163350000Y-150200000D03*
X163350000Y-149400000D03*
X163350000Y-148600000D03*
X163350000Y-147800000D03*
X163350000Y-147000000D03*
X163350000Y-146200000D03*
X163350000Y-145400000D03*
X163350000Y-144600000D03*
X163350000Y-143800000D03*
D14*
X163350000Y-142850000D03*
D12*
X160850000Y-140150000D03*
D13*
X159900000Y-140150000D03*
X159100000Y-140150000D03*
X158300000Y-140150000D03*
X157500000Y-140150000D03*
X156700000Y-140150000D03*
X155900000Y-140150000D03*
X155100000Y-140150000D03*
X154300000Y-140150000D03*
X153500000Y-140150000D03*
X152700000Y-140150000D03*
X151900000Y-140150000D03*
X151100000Y-140150000D03*
X150300000Y-140150000D03*
X149500000Y-140150000D03*
X148700000Y-140150000D03*
X147900000Y-140150000D03*
X147100000Y-140150000D03*
X146300000Y-140150000D03*
X145500000Y-140150000D03*
X144700000Y-140150000D03*
X143900000Y-140150000D03*
X143100000Y-140150000D03*
D12*
X142150000Y-140150000D03*
D14*
X139650000Y-142850000D03*
D15*
X139650000Y-143800000D03*
X139650000Y-144600000D03*
X139650000Y-145400000D03*
X139650000Y-146200000D03*
X139650000Y-147000000D03*
X139650000Y-147800000D03*
X139650000Y-148600000D03*
X139650000Y-149400000D03*
X139650000Y-150200000D03*
X139650000Y-151000000D03*
X139650000Y-151800000D03*
X139650000Y-152600000D03*
X139650000Y-153400000D03*
X139650000Y-154200000D03*
D14*
X139650000Y-155150000D03*
%TD*%
D10*
%TO.C,IC101*%
X107920000Y-212150000D03*
D11*
X109265000Y-212150000D03*
X110535000Y-212150000D03*
X111805000Y-212150000D03*
X113075000Y-212150000D03*
X114345000Y-212150000D03*
X115615000Y-212150000D03*
X116885000Y-212150000D03*
X118155000Y-212150000D03*
X119425000Y-212150000D03*
X120695000Y-212150000D03*
X121965000Y-212150000D03*
X123235000Y-212150000D03*
D10*
X124580000Y-212150000D03*
X124580000Y-201850000D03*
D11*
X123235000Y-201850000D03*
X121965000Y-201850000D03*
X120695000Y-201850000D03*
X119425000Y-201850000D03*
X118155000Y-201850000D03*
X116885000Y-201850000D03*
X115615000Y-201850000D03*
X114345000Y-201850000D03*
X113075000Y-201850000D03*
X111805000Y-201850000D03*
X110535000Y-201850000D03*
X109265000Y-201850000D03*
D10*
X107920000Y-201850000D03*
%TD*%
%TO.C,IC103*%
X102920000Y-192400000D03*
D11*
X104265000Y-192400000D03*
X105535000Y-192400000D03*
X106805000Y-192400000D03*
X108075000Y-192400000D03*
X109345000Y-192400000D03*
X110615000Y-192400000D03*
X111885000Y-192400000D03*
X113155000Y-192400000D03*
X114425000Y-192400000D03*
X115695000Y-192400000D03*
X116965000Y-192400000D03*
X118235000Y-192400000D03*
D10*
X119580000Y-192400000D03*
X119580000Y-182100000D03*
D11*
X118235000Y-182100000D03*
X116965000Y-182100000D03*
X115695000Y-182100000D03*
X114425000Y-182100000D03*
X113155000Y-182100000D03*
X111885000Y-182100000D03*
X110615000Y-182100000D03*
X109345000Y-182100000D03*
X108075000Y-182100000D03*
X106805000Y-182100000D03*
X105535000Y-182100000D03*
X104265000Y-182100000D03*
D10*
X102920000Y-182100000D03*
%TD*%
D12*
%TO.C,IC104*%
X142150000Y-209850000D03*
D13*
X143100000Y-209850000D03*
X143900000Y-209850000D03*
X144700000Y-209850000D03*
X145500000Y-209850000D03*
X146300000Y-209850000D03*
X147100000Y-209850000D03*
X147900000Y-209850000D03*
X148700000Y-209850000D03*
X149500000Y-209850000D03*
X150300000Y-209850000D03*
X151100000Y-209850000D03*
X151900000Y-209850000D03*
X152700000Y-209850000D03*
X153500000Y-209850000D03*
X154300000Y-209850000D03*
X155100000Y-209850000D03*
X155900000Y-209850000D03*
X156700000Y-209850000D03*
X157500000Y-209850000D03*
X158300000Y-209850000D03*
X159100000Y-209850000D03*
X159900000Y-209850000D03*
D12*
X160850000Y-209850000D03*
D14*
X163350000Y-207150000D03*
D15*
X163350000Y-206200000D03*
X163350000Y-205400000D03*
X163350000Y-204600000D03*
X163350000Y-203800000D03*
X163350000Y-203000000D03*
X163350000Y-202200000D03*
X163350000Y-201400000D03*
X163350000Y-200600000D03*
X163350000Y-199800000D03*
X163350000Y-199000000D03*
X163350000Y-198200000D03*
X163350000Y-197400000D03*
X163350000Y-196600000D03*
X163350000Y-195800000D03*
D14*
X163350000Y-194850000D03*
D12*
X160850000Y-192150000D03*
D13*
X159900000Y-192150000D03*
X159100000Y-192150000D03*
X158300000Y-192150000D03*
X157500000Y-192150000D03*
X156700000Y-192150000D03*
X155900000Y-192150000D03*
X155100000Y-192150000D03*
X154300000Y-192150000D03*
X153500000Y-192150000D03*
X152700000Y-192150000D03*
X151900000Y-192150000D03*
X151100000Y-192150000D03*
X150300000Y-192150000D03*
X149500000Y-192150000D03*
X148700000Y-192150000D03*
X147900000Y-192150000D03*
X147100000Y-192150000D03*
X146300000Y-192150000D03*
X145500000Y-192150000D03*
X144700000Y-192150000D03*
X143900000Y-192150000D03*
X143100000Y-192150000D03*
D12*
X142150000Y-192150000D03*
D14*
X139650000Y-194850000D03*
D15*
X139650000Y-195800000D03*
X139650000Y-196600000D03*
X139650000Y-197400000D03*
X139650000Y-198200000D03*
X139650000Y-199000000D03*
X139650000Y-199800000D03*
X139650000Y-200600000D03*
X139650000Y-201400000D03*
X139650000Y-202200000D03*
X139650000Y-203000000D03*
X139650000Y-203800000D03*
X139650000Y-204600000D03*
X139650000Y-205400000D03*
X139650000Y-206200000D03*
D14*
X139650000Y-207150000D03*
%TD*%
D12*
%TO.C,IC111*%
X227650000Y-94850000D03*
D13*
X228600000Y-94850000D03*
X229400000Y-94850000D03*
X230200000Y-94850000D03*
X231000000Y-94850000D03*
X231800000Y-94850000D03*
X232600000Y-94850000D03*
X233400000Y-94850000D03*
X234200000Y-94850000D03*
X235000000Y-94850000D03*
X235800000Y-94850000D03*
X236600000Y-94850000D03*
X237400000Y-94850000D03*
X238200000Y-94850000D03*
X239000000Y-94850000D03*
X239800000Y-94850000D03*
X240600000Y-94850000D03*
X241400000Y-94850000D03*
X242200000Y-94850000D03*
X243000000Y-94850000D03*
X243800000Y-94850000D03*
X244600000Y-94850000D03*
X245400000Y-94850000D03*
D12*
X246350000Y-94850000D03*
D14*
X248850000Y-92150000D03*
D15*
X248850000Y-91200000D03*
X248850000Y-90400000D03*
X248850000Y-89600000D03*
X248850000Y-88800000D03*
X248850000Y-88000000D03*
X248850000Y-87200000D03*
X248850000Y-86400000D03*
X248850000Y-85600000D03*
X248850000Y-84800000D03*
X248850000Y-84000000D03*
X248850000Y-83200000D03*
X248850000Y-82400000D03*
X248850000Y-81600000D03*
X248850000Y-80800000D03*
D14*
X248850000Y-79850000D03*
D12*
X246350000Y-77150000D03*
D13*
X245400000Y-77150000D03*
X244600000Y-77150000D03*
X243800000Y-77150000D03*
X243000000Y-77150000D03*
X242200000Y-77150000D03*
X241400000Y-77150000D03*
X240600000Y-77150000D03*
X239800000Y-77150000D03*
X239000000Y-77150000D03*
X238200000Y-77150000D03*
X237400000Y-77150000D03*
X236600000Y-77150000D03*
X235800000Y-77150000D03*
X235000000Y-77150000D03*
X234200000Y-77150000D03*
X233400000Y-77150000D03*
X232600000Y-77150000D03*
X231800000Y-77150000D03*
X231000000Y-77150000D03*
X230200000Y-77150000D03*
X229400000Y-77150000D03*
X228600000Y-77150000D03*
D12*
X227650000Y-77150000D03*
D14*
X225150000Y-79850000D03*
D15*
X225150000Y-80800000D03*
X225150000Y-81600000D03*
X225150000Y-82400000D03*
X225150000Y-83200000D03*
X225150000Y-84000000D03*
X225150000Y-84800000D03*
X225150000Y-85600000D03*
X225150000Y-86400000D03*
X225150000Y-87200000D03*
X225150000Y-88000000D03*
X225150000Y-88800000D03*
X225150000Y-89600000D03*
X225150000Y-90400000D03*
X225150000Y-91200000D03*
D14*
X225150000Y-92150000D03*
%TD*%
D12*
%TO.C,IC105*%
X195078872Y-140823761D03*
D13*
X196028872Y-140823761D03*
X196828872Y-140823761D03*
X197628872Y-140823761D03*
X198428872Y-140823761D03*
X199228872Y-140823761D03*
X200028872Y-140823761D03*
X200828872Y-140823761D03*
X201628872Y-140823761D03*
X202428872Y-140823761D03*
X203228872Y-140823761D03*
X204028872Y-140823761D03*
X204828872Y-140823761D03*
X205628872Y-140823761D03*
X206428872Y-140823761D03*
X207228872Y-140823761D03*
X208028872Y-140823761D03*
X208828872Y-140823761D03*
X209628872Y-140823761D03*
X210428872Y-140823761D03*
X211228872Y-140823761D03*
X212028872Y-140823761D03*
X212828872Y-140823761D03*
D12*
X213778872Y-140823761D03*
D14*
X216278872Y-138123761D03*
D15*
X216278872Y-137173761D03*
X216278872Y-136373761D03*
X216278872Y-135573761D03*
X216278872Y-134773761D03*
X216278872Y-133973761D03*
X216278872Y-133173761D03*
X216278872Y-132373761D03*
X216278872Y-131573761D03*
X216278872Y-130773761D03*
X216278872Y-129973761D03*
X216278872Y-129173761D03*
X216278872Y-128373761D03*
X216278872Y-127573761D03*
X216278872Y-126773761D03*
D14*
X216278872Y-125823761D03*
D12*
X213778872Y-123123761D03*
D13*
X212828872Y-123123761D03*
X212028872Y-123123761D03*
X211228872Y-123123761D03*
X210428872Y-123123761D03*
X209628872Y-123123761D03*
X208828872Y-123123761D03*
X208028872Y-123123761D03*
X207228872Y-123123761D03*
X206428872Y-123123761D03*
X205628872Y-123123761D03*
X204828872Y-123123761D03*
X204028872Y-123123761D03*
X203228872Y-123123761D03*
X202428872Y-123123761D03*
X201628872Y-123123761D03*
X200828872Y-123123761D03*
X200028872Y-123123761D03*
X199228872Y-123123761D03*
X198428872Y-123123761D03*
X197628872Y-123123761D03*
X196828872Y-123123761D03*
X196028872Y-123123761D03*
D12*
X195078872Y-123123761D03*
D14*
X192578872Y-125823761D03*
D15*
X192578872Y-126773761D03*
X192578872Y-127573761D03*
X192578872Y-128373761D03*
X192578872Y-129173761D03*
X192578872Y-129973761D03*
X192578872Y-130773761D03*
X192578872Y-131573761D03*
X192578872Y-132373761D03*
X192578872Y-133173761D03*
X192578872Y-133973761D03*
X192578872Y-134773761D03*
X192578872Y-135573761D03*
X192578872Y-136373761D03*
X192578872Y-137173761D03*
D14*
X192578872Y-138123761D03*
%TD*%
D12*
%TO.C,IC119*%
X270400000Y-157850000D03*
D13*
X271350000Y-157850000D03*
X272150000Y-157850000D03*
X272950000Y-157850000D03*
X273750000Y-157850000D03*
X274550000Y-157850000D03*
X275350000Y-157850000D03*
X276150000Y-157850000D03*
X276950000Y-157850000D03*
X277750000Y-157850000D03*
X278550000Y-157850000D03*
X279350000Y-157850000D03*
X280150000Y-157850000D03*
X280950000Y-157850000D03*
X281750000Y-157850000D03*
X282550000Y-157850000D03*
X283350000Y-157850000D03*
X284150000Y-157850000D03*
X284950000Y-157850000D03*
X285750000Y-157850000D03*
X286550000Y-157850000D03*
X287350000Y-157850000D03*
X288150000Y-157850000D03*
D12*
X289100000Y-157850000D03*
D14*
X291600000Y-155150000D03*
D15*
X291600000Y-154200000D03*
X291600000Y-153400000D03*
X291600000Y-152600000D03*
X291600000Y-151800000D03*
X291600000Y-151000000D03*
X291600000Y-150200000D03*
X291600000Y-149400000D03*
X291600000Y-148600000D03*
X291600000Y-147800000D03*
X291600000Y-147000000D03*
X291600000Y-146200000D03*
X291600000Y-145400000D03*
X291600000Y-144600000D03*
X291600000Y-143800000D03*
D14*
X291600000Y-142850000D03*
D12*
X289100000Y-140150000D03*
D13*
X288150000Y-140150000D03*
X287350000Y-140150000D03*
X286550000Y-140150000D03*
X285750000Y-140150000D03*
X284950000Y-140150000D03*
X284150000Y-140150000D03*
X283350000Y-140150000D03*
X282550000Y-140150000D03*
X281750000Y-140150000D03*
X280950000Y-140150000D03*
X280150000Y-140150000D03*
X279350000Y-140150000D03*
X278550000Y-140150000D03*
X277750000Y-140150000D03*
X276950000Y-140150000D03*
X276150000Y-140150000D03*
X275350000Y-140150000D03*
X274550000Y-140150000D03*
X273750000Y-140150000D03*
X272950000Y-140150000D03*
X272150000Y-140150000D03*
X271350000Y-140150000D03*
D12*
X270400000Y-140150000D03*
D14*
X267900000Y-142850000D03*
D15*
X267900000Y-143800000D03*
X267900000Y-144600000D03*
X267900000Y-145400000D03*
X267900000Y-146200000D03*
X267900000Y-147000000D03*
X267900000Y-147800000D03*
X267900000Y-148600000D03*
X267900000Y-149400000D03*
X267900000Y-150200000D03*
X267900000Y-151000000D03*
X267900000Y-151800000D03*
X267900000Y-152600000D03*
X267900000Y-153400000D03*
X267900000Y-154200000D03*
D14*
X267900000Y-155150000D03*
%TD*%
M02*
