M48
; DRILL file KiCad 10.0.1 date 2026-09-03T17:48:12
; FORMAT={-:-/ absolute / metric / decimal}
; #@! TF.CreationDate,2026-09-03T17:48:12+08:00
; #@! TF.GenerationSoftware,Kicad,Pcbnew,10.0.1
; #@! TF.FileFunction,Plated,1,2,PTH
FMAT,2
METRIC
; #@! TA.AperFunction,Plated,PTH,ViaDrill
T1C0.300
; #@! TA.AperFunction,Plated,PTH,ViaDrill
T2C0.400
; #@! TA.AperFunction,Plated,PTH,ViaDrill
T3C0.500
; #@! TA.AperFunction,Plated,PTH,ComponentDrill
T4C0.700
; #@! TA.AperFunction,Plated,PTH,ComponentDrill
T5C0.800
; #@! TA.AperFunction,Plated,PTH,ComponentDrill
T6C0.900
; #@! TA.AperFunction,Plated,PTH,ComponentDrill
T7C0.930
; #@! TA.AperFunction,Plated,PTH,ComponentDrill
T8C1.000
; #@! TA.AperFunction,Plated,PTH,ComponentDrill
T9C1.100
; #@! TA.AperFunction,Plated,PTH,ComponentDrill
T10C1.200
; #@! TA.AperFunction,Plated,PTH,ComponentDrill
T11C1.300
; #@! TA.AperFunction,Plated,PTH,ComponentDrill
T12C1.500
; #@! TA.AperFunction,Plated,PTH,ComponentDrill
T13C1.510
; #@! TA.AperFunction,Plated,PTH,ComponentDrill
T14C1.600
; #@! TA.AperFunction,Plated,PTH,ComponentDrill
T15C1.800
; #@! TA.AperFunction,Plated,PTH,ComponentDrill
T16C2.500
; #@! TA.AperFunction,Plated,PTH,ComponentDrill
T17C2.600
; #@! TA.AperFunction,Plated,PTH,ComponentDrill
T18C3.700
; #@! TA.AperFunction,Plated,PTH,ComponentDrill
T19C3.800
%
G90
G05
T1
X114.25Y-142.5
X114.5Y-185.0
X115.5Y-152.5
X115.5Y-195.0
X115.75Y-142.5
X116.0Y-185.0
X117.0Y-152.5
X117.0Y-195.0
X117.25Y-142.5
X117.5Y-185.0
X118.5Y-152.5
X118.5Y-195.0
X118.75Y-142.5
X119.0Y-185.0
X120.25Y-142.5
X120.5Y-136.0
X120.5Y-185.0
X121.0Y-166.0
X121.0Y-208.5
X122.0Y-136.5
X122.25Y-147.0
X122.5Y-166.0
X122.5Y-208.5
X123.0Y-189.5
X123.25Y-148.5
X123.5Y-191.0
X123.75Y-150.0
X124.0Y-166.0
X124.0Y-192.5
X124.0Y-208.5
X124.25Y-151.5
X124.5Y-194.0
X125.25Y-153.5
X125.5Y-196.0
X125.75Y-155.0
X126.0Y-197.5
X126.5Y-156.5
X126.5Y-199.0
X127.0Y-158.0
X127.0Y-179.5
X127.0Y-200.25
X127.5Y-159.5
X127.5Y-201.75
X128.5Y-180.0
X135.5Y-143.5
X135.5Y-145.0
X135.5Y-146.5
X135.5Y-148.0
X135.5Y-195.5
X135.5Y-197.0
X135.5Y-198.5
X135.5Y-200.0
X135.75Y-150.0
X136.0Y-202.0
X136.0Y-207.0
X136.5Y-152.0
X136.5Y-204.0
X136.5Y-205.5
X141.5Y-213.0
X142.0Y-163.5
X143.0Y-152.5
X143.0Y-154.0
X143.0Y-204.5
X143.0Y-206.0
X143.0Y-213.0
X143.5Y-163.0
X144.5Y-213.0
X152.0Y-132.5
X153.5Y-132.5
X154.5Y-186.0
X155.5Y-184.5
X156.5Y-134.0
X156.5Y-186.0
X157.5Y-132.5
X157.5Y-184.5
X158.5Y-134.0
X158.5Y-186.0
X159.5Y-132.5
X159.5Y-167.5
X159.5Y-184.5
X160.5Y-134.0
X160.5Y-186.0
X161.0Y-166.75
X161.5Y-132.5
X161.5Y-184.5
X162.0Y-168.75
X162.5Y-134.0
X162.5Y-166.5
X162.5Y-186.0
X163.5Y-132.5
X163.5Y-184.5
X164.0Y-165.75
X164.0Y-169.75
X165.5Y-165.25
X166.5Y-169.5
X167.0Y-167.5
X170.0Y-143.0
X171.5Y-140.0
X171.5Y-143.0
X171.5Y-152.5
X172.0Y-141.5
X173.0Y-210.0
X174.5Y-211.5
X175.5Y-210.0
X176.5Y-211.5
X177.0Y-162.0
X177.0Y-164.0
X177.0Y-166.0
X177.0Y-168.0
X177.0Y-170.0
X177.0Y-172.0
X177.0Y-174.0
X177.5Y-210.0
X178.5Y-161.0
X178.5Y-163.0
X178.5Y-165.0
X178.5Y-167.0
X178.5Y-169.0
X178.5Y-171.0
X178.5Y-173.0
X178.5Y-211.5
X179.0Y-124.5
X179.5Y-210.0
X180.0Y-123.0
X180.5Y-211.5
X181.375Y-30.375
X181.5Y-210.0
X182.25Y-112.5
X182.5Y-211.5
X184.0Y-131.5
X184.5Y-130.0
X185.0Y-128.5
X185.5Y-127.0
X186.0Y-125.0
X186.0Y-160.5
X186.0Y-178.0
X186.5Y-123.5
X186.5Y-162.0
X186.5Y-176.5
X187.0Y-122.0
X187.0Y-164.0
X187.5Y-120.5
X188.0Y-119.0
X188.0Y-173.0
X188.5Y-165.0
X188.5Y-176.5
X188.5Y-178.0
X189.0Y-163.5
X189.5Y-162.0
X189.5Y-174.0
X190.0Y-160.5
X190.5Y-159.0
X191.0Y-157.5
X191.5Y-156.0
X192.0Y-152.5
X192.0Y-154.5
X192.0Y-209.0
X192.5Y-74.5
X192.5Y-76.5
X193.5Y-69.5
X193.5Y-71.0
X193.5Y-72.5
X193.5Y-78.5
X194.0Y-110.5
X194.688Y-95.938
X195.5Y-111.0
X196.5Y-134.0
X196.5Y-145.5
X196.5Y-182.5
X197.0Y-132.5
X197.5Y-131.0
X197.5Y-184.0
X198.0Y-145.5
X198.5Y-147.0
X198.5Y-182.5
X199.0Y-148.5
X199.5Y-150.0
X199.5Y-184.0
X200.5Y-182.5
X201.75Y-177.0
X202.25Y-178.5
X202.5Y-71.0
X203.5Y-72.5
X204.5Y-149.5
X204.75Y-71.0
X205.25Y-108.5
X205.25Y-177.0
X205.5Y-72.5
X206.0Y-91.0
X206.0Y-149.5
X206.5Y-65.5
X206.5Y-71.0
X206.5Y-108.5
X206.5Y-152.5
X207.25Y-92.25
X207.5Y-72.5
X208.0Y-65.5
X208.5Y-71.0
X208.5Y-82.75
X208.5Y-93.5
X209.0Y-81.25
X209.5Y-65.5
X209.5Y-72.5
X209.75Y-94.75
X210.25Y-177.0
X210.429Y-118.071
X210.5Y-71.0
X211.0Y-65.5
X211.0Y-77.5
X211.0Y-96.0
X211.5Y-72.5
X211.75Y-181.5
X212.5Y-65.5
X212.5Y-71.0
X212.75Y-118.0
X212.75Y-180.0
X213.0Y-79.75
X213.5Y-72.5
X213.5Y-81.25
X213.75Y-181.5
X214.0Y-83.75
X214.5Y-71.0
X214.5Y-85.25
X214.75Y-180.0
X215.5Y-72.5
X215.5Y-107.0
X215.75Y-181.5
X216.0Y-105.5
X216.5Y-71.0
X216.75Y-115.0
X216.75Y-180.0
X217.0Y-87.0
X217.0Y-101.25
X217.5Y-103.25
X217.75Y-116.5
X217.75Y-181.5
X218.5Y-87.0
X218.5Y-89.0
X218.75Y-77.5
X219.0Y-90.5
X219.0Y-111.5
X219.25Y-79.0
X219.25Y-116.5
X219.75Y-81.5
X219.75Y-118.0
X220.25Y-83.0
X220.25Y-119.5
X221.0Y-104.0
X221.0Y-105.75
X221.75Y-111.5
X222.0Y-85.5
X222.5Y-104.0
X223.0Y-74.0
X224.0Y-67.0
X224.0Y-104.0
X224.5Y-68.5
X225.0Y-70.0
X225.5Y-96.25
X225.5Y-98.0
X226.125Y-103.875
X226.25Y-120.5
X226.5Y-68.5
X227.0Y-70.0
X227.25Y-182.5
X227.5Y-71.5
X227.625Y-98.0
X228.25Y-184.0
X228.5Y-80.5
X229.0Y-70.0
X229.25Y-182.5
X229.625Y-71.375
X230.0Y-80.5
X230.25Y-184.0
X230.75Y-62.5
X231.25Y-182.5
X232.25Y-102.75
X232.25Y-122.5
X232.25Y-184.0
X233.25Y-61.0
X233.25Y-144.0
X233.25Y-182.5
X233.75Y-122.5
X234.25Y-184.0
X234.75Y-61.5
X234.75Y-154.75
X235.0Y-71.0
X235.0Y-98.0
X235.25Y-122.5
X235.25Y-153.25
X235.25Y-182.5
X235.5Y-72.5
X235.75Y-151.75
X236.25Y-61.5
X236.25Y-150.25
X236.25Y-184.0
X236.5Y-101.5
X236.75Y-59.5
X236.75Y-122.5
X236.75Y-148.75
X237.0Y-69.5
X237.25Y-147.25
X237.25Y-182.5
X237.5Y-71.0
X237.5Y-100.5
X237.75Y-61.5
X237.75Y-145.75
X238.0Y-72.5
X238.25Y-144.25
X238.25Y-184.0
X238.75Y-60.0
X239.25Y-58.5
X239.5Y-69.5
X239.5Y-98.0
X239.5Y-101.0
X240.0Y-71.0
X240.25Y-160.5
X240.5Y-72.5
X242.75Y-186.0
X243.75Y-66.5
X243.75Y-104.5
X244.25Y-62.0
X244.25Y-70.5
X244.75Y-69.0
X244.75Y-106.0
X244.75Y-186.0
X245.75Y-58.0
X245.75Y-104.5
X246.25Y-56.25
X246.25Y-69.0
X246.75Y-106.0
X247.25Y-122.0
X247.75Y-123.5
X247.75Y-172.5
X247.75Y-176.5
X248.25Y-104.5
X248.25Y-125.0
X249.25Y-173.5
X249.25Y-175.5
X250.25Y-143.0
X251.25Y-129.0
X251.25Y-145.5
X251.25Y-147.0
X251.75Y-98.0
X251.75Y-142.0
X252.25Y-88.5
X252.25Y-96.5
X252.25Y-176.0
X252.75Y-95.0
X252.75Y-164.5
X253.25Y-93.5
X253.25Y-174.0
X253.75Y-92.0
X253.75Y-150.0
X253.75Y-161.0
X253.75Y-176.0
X254.25Y-90.5
X254.25Y-151.5
X254.75Y-89.0
X255.25Y-87.5
X255.75Y-86.0
X256.25Y-84.5
X256.75Y-83.0
X257.25Y-81.5
X257.25Y-144.5
X258.25Y-136.0
X258.25Y-137.5
X258.75Y-35.75
X258.75Y-123.0
X259.0Y-174.0
X259.25Y-34.25
X259.5Y-43.0
X259.75Y-152.5
X259.875Y-166.875
X260.75Y-136.5
X261.25Y-38.25
X261.25Y-45.75
X262.75Y-130.5
X263.25Y-134.0
X263.75Y-132.5
X263.75Y-135.5
X263.75Y-137.0
X263.75Y-185.0
X263.75Y-187.0
X263.75Y-189.0
X263.75Y-191.0
X265.25Y-184.0
X265.25Y-186.0
X265.25Y-188.0
X265.25Y-190.0
X267.25Y-41.0
X269.25Y-40.0
X269.25Y-92.0
X269.25Y-102.0
X270.75Y-40.0
X271.25Y-94.5
X271.25Y-96.0
X271.25Y-166.0
X272.25Y-40.0
X273.75Y-40.0
X275.25Y-40.0
X275.75Y-43.75
X275.75Y-94.0
X275.75Y-129.0
X276.75Y-40.25
X276.75Y-42.25
X277.75Y-98.0
X277.75Y-99.5
X277.75Y-101.0
X278.25Y-92.0
X279.75Y-101.5
X279.75Y-103.0
X279.75Y-120.5
X281.0Y-212.0
X287.5Y-203.5
X289.5Y-226.5
X290.0Y-184.0
X291.0Y-226.5
X292.0Y-185.0
X294.991Y-166.316
X295.75Y-143.0
X295.75Y-148.5
X295.75Y-154.0
X295.875Y-163.875
X296.0Y-92.75
X296.75Y-152.25
X297.375Y-150.875
X298.25Y-146.0
X298.25Y-148.0
X298.25Y-149.5
X298.5Y-186.0
X299.0Y-108.0
X301.0Y-190.5
X302.0Y-108.0
X304.0Y-188.0
X304.25Y-227.5
X304.25Y-229.0
X304.75Y-104.0
X306.0Y-188.0
X307.5Y-134.5
X308.5Y-190.5
X312.5Y-190.5
X313.0Y-134.5
X315.5Y-104.25
X318.0Y-191.5
X324.05Y-136.95
X327.5Y-137.0
X328.0Y-203.0
X330.0Y-192.5
X334.0Y-211.5
X335.625Y-179.375
X338.0Y-194.0
X340.0Y-203.0
T2
X87.0Y-97.0
X87.0Y-101.75
X87.0Y-106.75
X87.0Y-111.75
X87.0Y-116.75
X87.0Y-121.75
X87.0Y-131.75
X87.0Y-136.75
X87.0Y-141.75
X87.0Y-146.75
X87.0Y-151.75
X87.0Y-156.75
X87.0Y-161.75
X87.0Y-166.75
X87.0Y-172.0
X87.0Y-177.0
X87.0Y-187.0
X87.0Y-192.0
X87.0Y-197.0
X87.0Y-202.0
X87.0Y-207.0
X87.0Y-212.0
X87.0Y-217.0
X87.0Y-222.0
X87.0Y-227.0
X92.0Y-97.0
X92.0Y-129.25
X92.0Y-131.75
X92.0Y-136.75
X92.0Y-141.75
X92.0Y-146.75
X92.0Y-151.75
X92.0Y-156.75
X92.0Y-161.75
X92.0Y-166.75
X92.0Y-172.0
X92.0Y-177.0
X92.0Y-182.0
X92.0Y-187.0
X92.0Y-192.0
X92.0Y-197.0
X92.0Y-202.0
X92.0Y-207.0
X92.0Y-212.0
X92.0Y-217.0
X92.0Y-222.0
X92.0Y-227.0
X94.5Y-224.5
X96.75Y-87.0
X96.75Y-92.0
X97.0Y-97.0
X97.0Y-227.0
X99.5Y-224.5
X102.0Y-86.0
X102.0Y-212.0
X102.0Y-237.0
X102.75Y-137.0
X103.0Y-178.75
X104.5Y-212.0
X104.5Y-214.5
X104.5Y-224.5
X104.5Y-232.0
X107.0Y-86.0
X107.0Y-176.75
X107.0Y-237.0
X108.0Y-161.75
X108.0Y-204.25
X109.25Y-127.0
X109.25Y-132.25
X109.5Y-232.0
X111.5Y-177.5
X111.75Y-127.0
X112.0Y-161.75
X112.0Y-204.25
X112.0Y-237.0
X114.25Y-132.25
X114.5Y-161.75
X114.5Y-204.25
X114.5Y-222.0
X114.5Y-232.0
X117.0Y-161.75
X117.0Y-177.5
X117.0Y-204.25
X117.0Y-237.0
X119.25Y-132.25
X119.5Y-114.0
X119.5Y-222.0
X119.5Y-232.0
X120.75Y-152.5
X121.0Y-195.0
X122.0Y-86.0
X122.0Y-114.0
X122.0Y-177.5
X122.0Y-237.0
X123.25Y-181.0
X123.5Y-136.5
X124.5Y-114.0
X124.5Y-222.0
X124.5Y-232.0
X124.75Y-181.0
X125.0Y-136.5
X125.5Y-166.0
X125.5Y-177.5
X125.5Y-208.5
X127.0Y-86.0
X127.0Y-237.0
X127.5Y-181.5
X127.5Y-188.0
X129.0Y-222.0
X129.5Y-232.0
X132.0Y-86.0
X132.0Y-237.0
X134.25Y-129.5
X134.5Y-209.5
X134.5Y-212.0
X134.5Y-217.0
X134.5Y-222.0
X134.5Y-232.0
X135.0Y-119.5
X136.75Y-129.5
X136.75Y-169.5
X136.75Y-172.0
X136.75Y-177.0
X136.75Y-179.5
X137.0Y-86.0
X137.0Y-119.5
X137.0Y-122.0
X137.0Y-237.0
X139.25Y-129.5
X139.5Y-117.0
X139.5Y-217.0
X139.5Y-222.0
X139.5Y-232.0
X142.0Y-86.0
X142.0Y-169.5
X142.0Y-177.0
X142.0Y-179.5
X142.0Y-237.0
X143.0Y-149.5
X143.0Y-201.0
X144.5Y-217.0
X144.5Y-222.0
X144.5Y-232.0
X145.0Y-201.5
X145.5Y-149.5
X147.0Y-87.0
X147.0Y-172.0
X147.0Y-177.0
X147.0Y-179.5
X147.0Y-201.5
X147.5Y-145.5
X147.5Y-149.5
X147.5Y-213.5
X148.0Y-199.5
X148.5Y-147.5
X149.0Y-132.5
X149.0Y-136.5
X149.0Y-201.5
X149.25Y-188.5
X149.5Y-145.5
X149.5Y-149.5
X149.5Y-217.0
X149.5Y-222.0
X149.5Y-232.0
X150.5Y-132.5
X150.5Y-147.5
X150.5Y-151.0
X150.5Y-152.5
X150.5Y-154.5
X150.5Y-199.5
X150.5Y-202.5
X150.5Y-204.5
X150.5Y-206.5
X150.75Y-213.5
X151.5Y-149.5
X152.0Y-87.0
X152.0Y-169.5
X152.0Y-172.0
X152.0Y-177.0
X152.0Y-179.5
X152.5Y-151.0
X152.5Y-152.5
X152.5Y-154.5
X152.5Y-202.5
X152.5Y-204.5
X152.5Y-206.5
X153.5Y-129.0
X154.5Y-232.0
X154.75Y-129.0
X155.5Y-195.5
X155.75Y-143.5
X156.0Y-154.5
X156.0Y-206.5
X157.0Y-219.5
X157.0Y-222.0
X157.0Y-237.0
X158.0Y-197.0
X158.0Y-205.0
X158.5Y-144.5
X158.5Y-152.5
X159.5Y-102.0
X159.5Y-107.0
X159.5Y-232.0
X160.0Y-143.5
X160.0Y-145.0
X160.0Y-146.5
X160.0Y-148.0
X160.0Y-149.5
X160.0Y-152.5
X160.0Y-154.5
X160.0Y-197.0
X160.0Y-198.5
X160.0Y-200.0
X160.0Y-201.5
X160.0Y-205.0
X160.0Y-206.5
X162.0Y-219.5
X162.0Y-222.0
X162.0Y-237.0
X164.5Y-89.5
X164.5Y-102.0
X164.5Y-107.0
X164.5Y-232.0
X166.0Y-210.0
X166.5Y-201.0
X167.0Y-99.5
X167.0Y-109.5
X167.0Y-154.0
X167.0Y-155.5
X167.0Y-219.5
X167.0Y-222.0
X167.0Y-237.0
X168.0Y-201.0
X168.0Y-210.0
X168.5Y-132.0
X168.5Y-134.5
X168.5Y-137.0
X168.5Y-139.5
X168.5Y-141.75
X168.5Y-149.0
X168.5Y-152.5
X168.5Y-154.0
X168.5Y-155.5
X169.5Y-89.5
X169.5Y-232.0
X170.0Y-56.5
X170.0Y-58.0
X170.0Y-59.5
X170.0Y-61.0
X170.5Y-172.0
X170.5Y-176.5
X170.5Y-181.0
X170.5Y-184.5
X170.5Y-189.0
X172.0Y-102.0
X172.0Y-104.5
X172.0Y-237.0
X174.0Y-157.5
X174.5Y-89.5
X174.5Y-102.0
X174.5Y-104.5
X174.5Y-149.0
X174.5Y-232.0
X175.0Y-154.0
X175.0Y-155.5
X177.0Y-67.0
X177.0Y-77.0
X177.0Y-87.0
X177.0Y-99.5
X177.0Y-104.5
X177.0Y-237.0
X177.25Y-57.0
X177.5Y-107.0
X178.5Y-25.0
X179.0Y-107.0
X179.5Y-99.5
X179.5Y-102.0
X179.5Y-104.5
X179.5Y-232.0
X180.5Y-107.0
X182.0Y-107.0
X182.0Y-237.0
X182.25Y-46.75
X182.25Y-49.5
X182.25Y-59.25
X182.25Y-64.25
X182.25Y-69.5
X182.25Y-74.5
X182.25Y-79.5
X182.25Y-84.5
X182.25Y-89.5
X184.0Y-93.5
X184.0Y-95.0
X184.5Y-232.0
X184.75Y-46.75
X184.75Y-49.5
X184.75Y-59.25
X184.75Y-64.25
X184.75Y-69.5
X184.75Y-74.5
X184.75Y-79.5
X184.75Y-84.5
X184.75Y-89.5
X187.0Y-207.0
X187.0Y-214.5
X187.0Y-217.0
X187.0Y-237.0
X188.5Y-25.0
X189.0Y-129.5
X189.5Y-232.0
X191.0Y-43.0
X191.0Y-49.5
X191.0Y-54.5
X191.0Y-59.25
X191.0Y-64.25
X191.0Y-68.0
X191.0Y-72.5
X192.0Y-172.25
X192.0Y-182.0
X192.0Y-185.5
X192.0Y-188.5
X192.0Y-192.0
X192.0Y-196.5
X192.0Y-199.5
X192.0Y-237.0
X193.0Y-170.75
X193.5Y-25.0
X194.0Y-154.5
X194.0Y-156.0
X194.0Y-157.5
X194.0Y-169.5
X194.5Y-50.5
X194.5Y-54.5
X194.5Y-59.5
X194.5Y-64.25
X194.5Y-67.25
X194.5Y-232.0
X196.0Y-137.5
X196.5Y-144.0
X197.0Y-126.5
X197.0Y-128.5
X197.0Y-237.0
X197.25Y-88.75
X197.25Y-90.75
X197.5Y-108.5
X198.5Y-25.0
X199.5Y-44.5
X199.5Y-49.5
X199.5Y-54.5
X199.5Y-59.5
X199.5Y-64.5
X199.5Y-67.0
X199.5Y-110.75
X199.5Y-127.0
X199.5Y-132.0
X199.5Y-204.0
X199.5Y-232.0
X200.0Y-79.5
X200.0Y-82.0
X200.0Y-87.0
X200.0Y-90.0
X200.75Y-169.25
X200.75Y-170.75
X200.75Y-172.25
X201.0Y-110.75
X202.0Y-79.5
X202.0Y-82.0
X202.0Y-87.0
X202.0Y-90.0
X202.0Y-129.5
X202.0Y-134.5
X202.0Y-237.0
X202.5Y-110.75
X202.5Y-180.0
X203.25Y-169.25
X203.25Y-170.75
X203.25Y-172.25
X203.5Y-25.0
X204.0Y-110.75
X204.5Y-127.0
X204.5Y-208.0
X204.5Y-232.0
X205.5Y-137.0
X205.5Y-147.0
X206.25Y-59.25
X207.0Y-129.5
X207.0Y-134.5
X207.0Y-237.0
X207.25Y-46.75
X207.25Y-54.25
X207.25Y-56.75
X207.25Y-80.75
X207.25Y-83.25
X207.25Y-85.25
X207.25Y-212.0
X207.5Y-149.5
X208.25Y-204.0
X208.25Y-210.5
X208.5Y-25.0
X208.75Y-79.25
X209.0Y-44.0
X209.0Y-106.0
X209.0Y-111.5
X209.25Y-87.5
X209.5Y-127.0
X209.5Y-132.0
X209.5Y-137.0
X209.75Y-46.75
X209.75Y-54.25
X209.75Y-56.75
X209.75Y-212.0
X209.75Y-224.5
X209.75Y-232.0
X210.5Y-106.0
X210.5Y-111.5
X210.75Y-85.25
X211.0Y-160.0
X211.0Y-161.5
X211.0Y-163.0
X211.0Y-169.25
X211.0Y-170.75
X211.0Y-172.25
X211.5Y-126.5
X211.5Y-137.5
X212.0Y-129.5
X212.0Y-134.5
X212.0Y-237.0
X212.25Y-229.5
X212.25Y-232.0
X212.5Y-159.25
X212.5Y-160.75
X213.5Y-25.0
X214.75Y-224.5
X215.25Y-188.0
X217.25Y-49.25
X217.25Y-54.25
X217.25Y-59.25
X217.25Y-212.0
X219.5Y-169.25
X219.5Y-170.75
X219.5Y-172.25
X219.75Y-224.5
X220.0Y-214.5
X220.25Y-47.25
X220.25Y-52.25
X224.75Y-224.5
X225.5Y-169.25
X225.5Y-170.75
X225.5Y-172.25
X226.5Y-33.0
X227.25Y-229.5
X227.25Y-232.0
X227.25Y-237.0
X228.5Y-25.0
X228.5Y-82.0
X228.5Y-83.5
X228.75Y-214.5
X229.25Y-90.0
X229.75Y-224.5
X230.0Y-82.5
X230.0Y-84.0
X230.25Y-46.75
X231.0Y-212.0
X231.25Y-169.25
X231.25Y-170.75
X231.25Y-172.25
X232.25Y-237.0
X232.75Y-88.5
X232.75Y-90.0
X233.25Y-155.25
X233.25Y-156.75
X233.25Y-161.5
X233.5Y-25.0
X233.5Y-80.5
X233.5Y-98.0
X233.75Y-87.0
X233.75Y-112.25
X234.0Y-91.5
X234.5Y-129.5
X234.5Y-132.0
X234.75Y-202.0
X234.75Y-224.5
X235.25Y-80.5
X235.25Y-85.5
X235.25Y-112.25
X235.75Y-84.0
X235.75Y-89.5
X236.75Y-80.5
X237.0Y-130.5
X237.0Y-132.0
X237.25Y-89.5
X237.25Y-237.0
X237.75Y-84.0
X237.75Y-85.5
X237.75Y-88.0
X238.25Y-52.75
X238.25Y-80.5
X238.5Y-25.0
X238.75Y-161.5
X238.75Y-163.0
X239.75Y-51.75
X239.75Y-84.0
X239.75Y-85.5
X239.75Y-148.0
X239.75Y-149.25
X239.75Y-151.75
X239.75Y-154.25
X239.75Y-156.25
X239.75Y-169.25
X239.75Y-170.75
X239.75Y-172.25
X239.75Y-224.5
X240.75Y-215.0
X241.0Y-128.5
X241.25Y-53.75
X241.25Y-211.5
X241.5Y-204.5
X241.75Y-84.0
X241.75Y-85.5
X242.25Y-80.5
X242.25Y-237.0
X242.5Y-127.0
X243.5Y-25.0
X243.75Y-84.0
X243.75Y-85.5
X243.75Y-87.0
X243.75Y-88.5
X243.75Y-90.0
X244.0Y-204.5
X244.75Y-224.5
X247.25Y-133.25
X247.25Y-237.0
X248.25Y-184.5
X248.25Y-187.0
X248.25Y-190.0
X248.25Y-193.0
X248.25Y-196.0
X248.25Y-199.5
X248.5Y-25.0
X248.75Y-149.75
X248.75Y-154.25
X248.75Y-157.0
X249.25Y-215.0
X249.75Y-126.25
X249.75Y-130.75
X249.75Y-224.5
X250.0Y-121.5
X250.75Y-117.0
X251.25Y-115.5
X252.25Y-237.0
X252.75Y-71.75
X253.5Y-25.0
X254.75Y-69.5
X254.75Y-71.75
X254.75Y-74.25
X254.75Y-76.75
X254.75Y-79.25
X254.75Y-224.5
X255.75Y-161.0
X256.25Y-63.25
X256.25Y-64.75
X257.25Y-237.0
X257.75Y-161.0
X258.5Y-25.0
X259.0Y-172.5
X259.0Y-175.25
X259.75Y-224.5
X262.25Y-160.25
X262.25Y-237.0
X263.5Y-25.0
X263.5Y-196.0
X263.5Y-197.5
X264.75Y-91.75
X264.75Y-94.25
X264.75Y-96.75
X264.75Y-104.5
X264.75Y-115.0
X264.75Y-117.0
X264.75Y-119.0
X264.75Y-155.75
X264.75Y-157.0
X264.75Y-222.0
X265.0Y-121.0
X265.0Y-163.5
X265.0Y-165.0
X265.0Y-166.5
X265.0Y-196.0
X265.0Y-197.5
X265.25Y-124.75
X265.25Y-126.25
X265.75Y-130.5
X266.25Y-63.25
X266.25Y-64.75
X266.25Y-222.0
X266.5Y-163.5
X266.5Y-165.0
X266.5Y-166.5
X266.5Y-196.0
X266.5Y-197.5
X267.25Y-94.5
X267.25Y-103.0
X267.25Y-224.5
X269.0Y-124.75
X269.0Y-126.25
X269.25Y-108.75
X269.25Y-115.5
X269.25Y-117.5
X269.25Y-119.5
X269.25Y-121.5
X269.75Y-51.75
X269.75Y-56.75
X269.75Y-61.75
X269.75Y-66.75
X269.75Y-71.75
X269.75Y-76.75
X269.75Y-81.75
X269.75Y-161.5
X269.75Y-166.0
X269.75Y-175.0
X269.75Y-215.0
X269.75Y-217.0
X269.75Y-219.0
X269.75Y-221.0
X269.75Y-223.0
X270.25Y-30.25
X270.25Y-34.25
X270.75Y-176.5
X271.25Y-109.0
X271.25Y-110.5
X271.25Y-112.0
X272.25Y-48.25
X272.25Y-59.25
X272.25Y-64.25
X272.25Y-69.25
X272.25Y-74.25
X272.25Y-79.25
X272.25Y-84.25
X272.25Y-144.5
X272.25Y-147.0
X272.25Y-175.5
X272.5Y-151.75
X272.5Y-154.5
X272.5Y-192.5
X272.5Y-194.0
X272.5Y-195.5
X272.5Y-197.0
X272.5Y-199.5
X272.5Y-202.0
X272.5Y-204.5
X272.5Y-209.5
X272.75Y-166.0
X273.75Y-89.0
X273.75Y-98.0
X273.75Y-115.5
X273.75Y-117.5
X273.75Y-121.0
X273.75Y-124.75
X273.75Y-127.0
X273.75Y-130.5
X273.75Y-132.0
X274.25Y-137.0
X274.5Y-179.5
X274.75Y-144.5
X274.75Y-149.5
X275.0Y-154.5
X275.0Y-182.0
X275.0Y-197.0
X275.0Y-199.5
X275.0Y-202.0
X275.0Y-204.5
X275.0Y-209.5
X275.25Y-34.25
X277.25Y-144.5
X277.25Y-147.0
X277.25Y-152.0
X277.5Y-179.5
X277.5Y-182.0
X277.5Y-197.0
X277.5Y-209.5
X277.5Y-237.0
X279.25Y-38.75
X279.75Y-111.0
X279.75Y-149.5
X279.75Y-173.5
X280.0Y-125.5
X280.0Y-127.0
X280.0Y-129.5
X280.0Y-136.5
X280.0Y-182.0
X280.0Y-197.0
X280.0Y-199.5
X280.0Y-202.0
X280.0Y-204.5
X280.0Y-209.5
X281.25Y-36.75
X281.25Y-40.25
X281.25Y-45.25
X281.25Y-50.25
X281.25Y-55.25
X281.25Y-60.25
X281.25Y-65.25
X281.25Y-70.25
X281.25Y-75.25
X281.25Y-80.25
X281.5Y-161.25
X281.5Y-163.0
X281.5Y-164.5
X281.75Y-172.25
X282.25Y-152.0
X282.5Y-175.5
X282.5Y-178.0
X282.5Y-182.0
X282.5Y-197.0
X282.5Y-202.0
X282.5Y-204.5
X282.5Y-209.5
X282.5Y-237.0
X283.0Y-154.25
X283.0Y-164.5
X283.0Y-166.0
X283.0Y-167.5
X283.5Y-85.5
X284.75Y-144.5
X284.75Y-147.0
X284.75Y-149.5
X284.75Y-152.0
X285.0Y-197.0
X285.0Y-199.5
X285.0Y-202.0
X285.0Y-204.5
X285.5Y-137.0
X287.25Y-134.5
X287.5Y-154.25
X287.5Y-192.5
X287.5Y-194.0
X287.5Y-195.5
X287.5Y-237.0
X288.5Y-85.5
X288.562Y-147.438
X289.0Y-137.0
X289.75Y-112.0
X289.75Y-114.5
X290.0Y-161.25
X290.0Y-162.75
X291.5Y-159.25
X291.5Y-160.75
X291.5Y-162.25
X291.5Y-163.75
X292.25Y-209.5
X292.5Y-199.5
X293.0Y-237.0
X293.5Y-85.5
X294.75Y-109.5
X294.75Y-112.0
X294.75Y-119.5
X295.0Y-182.0
X295.0Y-199.5
X297.5Y-199.5
X297.5Y-205.0
X299.75Y-119.5
X300.0Y-182.0
X304.75Y-112.0
X304.75Y-119.5
X305.0Y-182.0
X305.5Y-205.0
X307.25Y-114.5
X308.5Y-96.0
X308.5Y-143.25
X309.25Y-112.0
X309.75Y-119.5
X310.0Y-182.0
X310.0Y-187.0
X310.5Y-123.0
X310.5Y-127.0
X311.5Y-143.25
X312.5Y-172.25
X312.5Y-174.25
X314.0Y-123.0
X314.0Y-127.0
X314.0Y-205.0
X315.0Y-169.25
X315.0Y-182.0
X315.0Y-187.0
X315.25Y-108.5
X315.25Y-114.5
X315.5Y-96.05
X315.5Y-102.0
X317.5Y-172.25
X317.5Y-174.25
X318.5Y-85.5
X319.0Y-136.0
X320.0Y-102.0
X320.0Y-157.0
X320.0Y-159.5
X320.0Y-167.0
X320.0Y-169.25
X320.0Y-182.0
X320.0Y-187.0
X320.0Y-199.5
X322.0Y-197.0
X322.0Y-205.0
X322.5Y-92.0
X322.5Y-102.0
X322.5Y-113.5
X324.5Y-199.5
X325.0Y-142.5
X326.0Y-113.5
X326.5Y-199.5
X327.0Y-122.75
X327.5Y-92.0
X327.5Y-94.5
X327.5Y-102.0
X327.5Y-104.5
X327.5Y-107.0
X328.0Y-113.5
X328.0Y-199.5
X328.5Y-184.5
X328.5Y-226.5
X328.5Y-229.0
X328.5Y-231.5
X328.5Y-234.0
X329.5Y-175.75
X329.5Y-177.25
X330.0Y-127.0
X330.0Y-147.0
X330.0Y-152.0
X330.0Y-205.0
X331.5Y-92.0
X331.5Y-94.5
X331.5Y-199.5
X332.5Y-101.5
X332.5Y-104.5
X332.5Y-107.0
X332.5Y-113.5
X332.5Y-122.0
X332.5Y-184.5
X333.5Y-85.25
X334.0Y-199.5
X334.5Y-113.5
X335.0Y-127.0
X335.0Y-132.0
X335.0Y-137.0
X335.0Y-142.0
X335.0Y-147.0
X335.0Y-152.0
X336.5Y-92.0
X336.5Y-94.5
X336.5Y-184.5
X336.5Y-199.5
X337.5Y-104.5
X337.5Y-107.0
X337.5Y-122.0
X338.0Y-205.0
X339.5Y-199.5
X340.0Y-122.0
X340.0Y-127.0
X340.0Y-132.0
X340.0Y-137.0
X340.0Y-142.0
X340.0Y-147.0
X340.0Y-152.0
X342.5Y-85.25
X342.5Y-177.0
X342.5Y-184.5
X342.5Y-199.5
X342.5Y-202.0
X345.0Y-122.0
X345.0Y-127.0
X345.0Y-132.0
X345.0Y-137.0
X345.0Y-142.0
X345.0Y-147.0
X345.0Y-152.0
X345.0Y-172.0
X345.0Y-174.5
X345.0Y-199.25
X345.0Y-201.75
X347.5Y-177.0
X347.5Y-184.5
X347.5Y-189.25
X347.5Y-194.25
X347.75Y-229.25
X347.75Y-234.25
X348.0Y-199.75
X348.0Y-202.75
X350.0Y-122.0
X350.0Y-127.0
X350.0Y-132.0
X350.0Y-137.0
X350.0Y-142.0
X350.0Y-147.0
X350.0Y-152.0
X350.0Y-169.5
X350.0Y-172.0
X350.0Y-177.0
X350.0Y-191.75
X350.0Y-197.0
X353.0Y-102.75
X353.0Y-105.75
X353.0Y-107.75
X353.0Y-110.75
X353.25Y-96.75
X353.5Y-116.75
X353.5Y-122.0
X353.5Y-132.0
X353.5Y-137.0
X353.5Y-142.0
X353.5Y-147.0
X353.5Y-152.0
X353.5Y-157.0
X353.5Y-162.0
X353.5Y-167.0
X353.5Y-172.0
X353.5Y-177.0
X353.5Y-186.75
X353.5Y-191.75
X353.5Y-197.0
X353.5Y-202.0
X353.5Y-207.0
X353.5Y-212.0
X353.5Y-217.0
X353.5Y-222.0
X357.0Y-101.75
X357.0Y-106.75
X357.0Y-111.75
T3
X222.5Y-69.0
X227.25Y-52.0
X227.25Y-54.25
X228.75Y-62.5
X231.25Y-52.75
X231.25Y-54.25
X232.75Y-45.25
X239.25Y-45.25
X240.75Y-43.75
X241.0Y-63.5
X242.0Y-68.5
X243.75Y-63.5
X249.75Y-44.25
X249.75Y-46.75
X249.75Y-49.25
X255.75Y-40.25
X261.25Y-32.0
T5
X134.25Y-109.5
X134.25Y-114.5
X150.25Y-109.5
X150.25Y-114.5
X196.505Y-191.5
X197.775Y-194.04
X199.045Y-191.5
X199.5Y-214.5
X199.5Y-219.5
X200.315Y-194.04
X201.585Y-191.5
X202.855Y-194.04
X204.125Y-191.5
X205.395Y-194.04
X206.665Y-191.5
X207.935Y-194.04
X209.205Y-191.5
X210.475Y-194.04
X211.745Y-191.5
X213.015Y-194.04
X214.285Y-191.5
X215.555Y-194.04
X216.825Y-191.5
X218.095Y-194.04
X219.365Y-191.5
X220.635Y-194.04
X221.905Y-191.5
X223.175Y-194.04
X224.445Y-191.5
X225.715Y-194.04
X226.985Y-191.5
X228.255Y-194.04
X229.525Y-191.5
X230.795Y-194.04
X232.065Y-191.5
X233.335Y-194.04
X234.605Y-191.5
X235.875Y-194.04
X237.145Y-191.5
X238.415Y-194.04
X239.685Y-191.5
X240.955Y-194.04
X242.225Y-191.5
X243.495Y-194.04
X285.0Y-91.75
X285.0Y-96.75
X285.0Y-104.25
X285.0Y-109.25
X285.0Y-114.25
X285.0Y-119.25
X285.0Y-124.25
X285.0Y-129.25
X294.75Y-96.88
X294.75Y-104.5
X295.0Y-169.25
X295.0Y-174.25
X295.0Y-194.38
X295.0Y-202.0
X297.29Y-96.88
X297.29Y-104.5
X297.5Y-124.25
X297.5Y-129.25
X297.54Y-194.38
X297.54Y-202.0
X299.83Y-96.88
X299.83Y-104.5
X300.08Y-194.38
X300.08Y-202.0
X301.0Y-169.25
X301.0Y-174.25
X302.37Y-96.88
X302.37Y-104.5
X302.62Y-194.38
X302.62Y-202.0
X304.0Y-149.25
X304.0Y-154.25
X304.0Y-159.25
X304.0Y-164.25
X305.16Y-194.38
X305.16Y-202.0
X307.0Y-169.25
X307.0Y-174.25
X307.7Y-194.38
X307.7Y-202.0
X310.0Y-149.25
X310.0Y-154.25
X310.0Y-159.25
X310.0Y-164.25
X310.24Y-194.38
X310.24Y-202.0
X312.78Y-194.38
X312.78Y-202.0
X316.0Y-149.25
X316.0Y-154.25
X316.0Y-159.25
X316.0Y-164.25
X318.75Y-91.75
X318.75Y-96.75
X318.75Y-104.25
X318.75Y-109.25
X318.75Y-116.75
X318.75Y-121.75
X332.5Y-156.88
X332.5Y-164.5
X347.74Y-156.88
X347.74Y-164.5
T6
X336.0Y-233.2
X336.0Y-235.7
X337.95Y-235.7
X338.35Y-233.2
X340.55Y-233.2
X340.55Y-235.7
X342.5Y-233.2
X342.5Y-235.7
T7
X303.0Y-87.25
X305.0Y-87.25
X307.0Y-87.25
T8
X192.0Y-34.96
X192.0Y-37.5
X192.0Y-40.04
X194.54Y-34.96
X194.54Y-37.5
X194.54Y-40.04
X197.08Y-34.96
X197.08Y-37.5
X197.08Y-40.04
X199.62Y-34.96
X199.62Y-37.5
X199.62Y-40.04
X202.16Y-34.96
X202.16Y-37.5
X202.16Y-40.04
X204.7Y-34.96
X204.7Y-37.5
X204.7Y-40.04
X207.24Y-34.96
X207.24Y-37.5
X207.24Y-40.04
X209.78Y-34.96
X209.78Y-37.5
X209.78Y-40.04
X212.32Y-34.96
X212.32Y-37.5
X212.32Y-40.04
X214.86Y-34.96
X214.86Y-37.5
X214.86Y-40.04
X217.4Y-34.96
X217.4Y-37.5
X217.4Y-40.04
X219.94Y-34.96
X219.94Y-37.5
X219.94Y-40.04
X222.48Y-34.96
X222.48Y-37.5
X222.48Y-40.04
X225.02Y-34.96
X225.02Y-37.5
X225.02Y-40.04
X227.56Y-34.96
X227.56Y-37.5
X227.56Y-40.04
X230.1Y-34.96
X230.1Y-37.5
X230.1Y-40.04
X232.64Y-34.96
X232.64Y-37.5
X232.64Y-40.04
X235.18Y-34.96
X235.18Y-37.5
X235.18Y-40.04
X237.72Y-34.96
X237.72Y-37.5
X237.72Y-40.04
X240.26Y-34.96
X240.26Y-37.5
X240.26Y-40.04
X242.8Y-34.96
X242.8Y-37.5
X242.8Y-40.04
X245.34Y-34.96
X245.34Y-37.5
X245.34Y-40.04
X247.88Y-34.96
X247.88Y-37.5
X247.88Y-40.04
X303.0Y-234.5
X303.0Y-237.0
X305.0Y-234.5
X305.0Y-237.0
X307.0Y-234.5
X307.0Y-237.0
X309.0Y-234.5
X309.0Y-237.0
X311.0Y-234.5
X311.0Y-237.0
X313.0Y-234.5
X313.0Y-237.0
X315.0Y-234.5
X315.0Y-237.0
X317.0Y-234.5
X317.0Y-237.0
X319.0Y-234.5
X319.0Y-237.0
T9
X142.21Y-122.75
X144.75Y-122.75
X147.29Y-122.75
T10
X95.75Y-101.0
X95.75Y-122.0
X104.25Y-92.0
X104.25Y-102.0
X111.75Y-92.0
X111.75Y-102.0
X114.25Y-102.0
X116.75Y-92.0
X116.75Y-102.0
X160.0Y-68.475
X160.0Y-78.475
X165.0Y-80.975
X165.0Y-94.5
X167.5Y-68.475
X167.5Y-78.475
X167.5Y-80.975
X167.5Y-94.5
X170.0Y-80.975
X170.0Y-94.5
X197.0Y-54.5
X197.0Y-59.5
X254.75Y-54.5
X254.75Y-59.5
X274.0Y-214.5
X274.0Y-217.0
X274.0Y-219.5
X278.0Y-214.5
X278.0Y-217.0
X278.0Y-219.5
X282.0Y-214.5
X282.0Y-217.0
X282.0Y-219.5
X285.0Y-232.0
X286.0Y-214.5
X286.0Y-217.0
X286.0Y-219.5
X290.0Y-214.5
X290.0Y-217.0
X290.0Y-219.5
X290.0Y-232.0
X294.0Y-214.5
X294.0Y-217.0
X294.0Y-219.5
X298.0Y-214.5
X298.0Y-217.0
X298.0Y-219.5
X302.0Y-214.5
X302.0Y-217.0
X302.0Y-219.5
X306.0Y-214.5
X306.0Y-217.0
X306.0Y-219.5
X310.0Y-214.5
X310.0Y-217.0
X310.0Y-219.5
X314.0Y-214.5
X314.0Y-217.0
X314.0Y-219.5
X318.0Y-214.5
X318.0Y-217.0
X318.0Y-219.5
X322.0Y-214.5
X322.0Y-217.0
X322.0Y-219.5
X325.0Y-171.75
X325.0Y-176.75
X326.0Y-214.5
X326.0Y-217.0
X326.0Y-219.5
X330.0Y-214.5
X330.0Y-217.0
X330.0Y-219.5
X334.0Y-214.5
X334.0Y-217.0
X334.0Y-219.5
X338.0Y-214.5
X338.0Y-217.0
X338.0Y-219.5
X342.0Y-214.5
X342.0Y-217.0
X342.0Y-219.5
X345.0Y-224.5
X346.0Y-214.5
X346.0Y-217.0
X346.0Y-219.5
X350.0Y-214.5
X350.0Y-217.0
X350.0Y-219.5
X350.0Y-224.5
T11
X321.25Y-234.5
T12
X345.0Y-102.0
X345.0Y-112.0
X347.5Y-99.5
X347.5Y-107.0
X347.5Y-114.5
X355.0Y-104.5
X355.0Y-109.5
T13
X300.0Y-86.0
X310.0Y-86.0
T14
X130.0Y-98.0
X130.0Y-102.0
X134.0Y-98.0
X134.0Y-102.0
X138.0Y-98.0
X138.0Y-102.0
X146.0Y-98.0
X146.0Y-102.0
T15
X298.5Y-237.0
X323.5Y-237.0
T16
X252.94Y-37.5
T17
X186.94Y-37.5
T18
X87.0Y-87.0
X87.0Y-237.0
X160.0Y-27.0
X205.0Y-102.0
X220.0Y-237.0
X280.0Y-27.0
X353.0Y-87.0
X353.0Y-237.0
T19
X122.0Y-119.0
X159.0Y-177.0
X162.0Y-119.0
T4
G00X332.5Y-237.95
M15
G01X332.5Y-239.45
M16
G05
G00X338.5Y-239.5
M15
G01X340.0Y-239.5
M16
G05
G00X346.0Y-237.95
M15
G01X346.0Y-239.45
M16
G05
T8
G00X125.6Y-104.25
M15
G01X126.4Y-104.25
M16
G05
G00X125.6Y-95.75
M15
G01X126.9Y-95.75
M16
G05
G00X149.1Y-104.25
M15
G01X150.4Y-104.25
M16
G05
G00X149.6Y-95.75
M15
G01X150.4Y-95.75
M16
G05
G00X160.2Y-59.75
M15
G01X160.2Y-57.25
M16
G05
G00X164.2Y-63.5
M15
G01X162.2Y-63.5
M16
G05
G00X166.2Y-59.75
M15
G01X166.2Y-57.25
M16
G05
T10
G00X87.0Y-125.35
M15
G01X87.0Y-129.15
M16
G05
G00X87.0Y-179.6
M15
G01X87.0Y-183.4
M16
G05
G00X116.9Y-87.0
M15
G01X113.1Y-87.0
M16
G05
G00X148.85Y-237.0
M15
G01X152.65Y-237.0
M16
G05
G00X173.6Y-219.0
M15
G01X177.4Y-219.0
M16
G05
G00X184.0Y-52.6
M15
G01X184.0Y-56.4
M16
G05
G00X268.85Y-237.0
M15
G01X272.65Y-237.0
M16
G05
G00X272.0Y-56.4
M15
G01X272.0Y-52.6
M16
G05
G00X277.0Y-203.79
M15
G01X277.0Y-199.99
M16
G05
G00X326.9Y-87.0
M15
G01X323.1Y-87.0
M16
G05
G00X353.0Y-129.15
M15
G01X353.0Y-125.35
M16
G05
G00X353.0Y-183.4
M15
G01X353.0Y-179.6
M16
G05
M30
