%TF.GenerationSoftware,KiCad,Pcbnew,10.0.1*%
%TF.CreationDate,2026-09-03T17:48:08+08:00*%
%TF.ProjectId,supergrafx-motherboard,73757065-7267-4726-9166-782d6d6f7468,rev?*%
%TF.SameCoordinates,Original*%
%TF.FileFunction,Soldermask,Top*%
%TF.FilePolarity,Negative*%
%FSLAX46Y46*%
G04 Gerber Fmt 4.6, Leading zero omitted, Abs format (unit mm)*
G04 Created by KiCad (PCBNEW 10.0.1) date 2026-09-03 17:48:08*
%MOMM*%
%LPD*%
G01*
G04 APERTURE LIST*
G04 Aperture macros list*
%AMRoundRect*
0 Rectangle with rounded corners*
0 $1 Rounding radius*
0 $2 $3 $4 $5 $6 $7 $8 $9 X,Y pos of 4 corners*
0 Add a 4 corners polygon primitive as box body*
4,1,4,$2,$3,$4,$5,$6,$7,$8,$9,$2,$3,0*
0 Add four circle primitives for the rounded corners*
1,1,$1+$1,$2,$3*
1,1,$1+$1,$4,$5*
1,1,$1+$1,$6,$7*
1,1,$1+$1,$8,$9*
0 Add four rect primitives between the rounded corners*
20,1,$1+$1,$2,$3,$4,$5,0*
20,1,$1+$1,$4,$5,$6,$7,0*
20,1,$1+$1,$6,$7,$8,$9,0*
20,1,$1+$1,$8,$9,$2,$3,0*%
%AMOutline5P*
0 Free polygon, 5 corners , with rotation*
0 The origin of the aperture is its center*
0 number of corners: always 5*
0 $1 to $10 corner X, Y*
0 $11 Rotation angle, in degrees counterclockwise*
0 create outline with 5 corners*
4,1,5,$1,$2,$3,$4,$5,$6,$7,$8,$9,$10,$1,$2,$11*%
%AMOutline6P*
0 Free polygon, 6 corners , with rotation*
0 The origin of the aperture is its center*
0 number of corners: always 6*
0 $1 to $12 corner X, Y*
0 $13 Rotation angle, in degrees counterclockwise*
0 create outline with 6 corners*
4,1,6,$1,$2,$3,$4,$5,$6,$7,$8,$9,$10,$11,$12,$1,$2,$13*%
%AMOutline7P*
0 Free polygon, 7 corners , with rotation*
0 The origin of the aperture is its center*
0 number of corners: always 7*
0 $1 to $14 corner X, Y*
0 $15 Rotation angle, in degrees counterclockwise*
0 create outline with 7 corners*
4,1,7,$1,$2,$3,$4,$5,$6,$7,$8,$9,$10,$11,$12,$13,$14,$1,$2,$15*%
%AMOutline8P*
0 Free polygon, 8 corners , with rotation*
0 The origin of the aperture is its center*
0 number of corners: always 8*
0 $1 to $16 corner X, Y*
0 $17 Rotation angle, in degrees counterclockwise*
0 create outline with 8 corners*
4,1,8,$1,$2,$3,$4,$5,$6,$7,$8,$9,$10,$11,$12,$13,$14,$15,$16,$1,$2,$17*%
G04 Aperture macros list end*
%ADD10C,2.200000*%
%ADD11C,2.000000*%
%ADD12RoundRect,0.250000X-0.550000X0.550000X-0.550000X-0.550000X0.550000X-0.550000X0.550000X0.550000X0*%
%ADD13C,1.600000*%
%ADD14RoundRect,0.200000X-0.200000X-1.200000X0.200000X-1.200000X0.200000X1.200000X-0.200000X1.200000X0*%
%ADD15RoundRect,0.162500X-0.162500X-1.237500X0.162500X-1.237500X0.162500X1.237500X-0.162500X1.237500X0*%
%ADD16RoundRect,0.250000X0.550000X-0.550000X0.550000X0.550000X-0.550000X0.550000X-0.550000X-0.550000X0*%
%ADD17RoundRect,0.450000X1.050000X-2.050000X1.050000X2.050000X-1.050000X2.050000X-1.050000X-2.050000X0*%
%ADD18RoundRect,0.450000X1.800000X1.050000X-1.800000X1.050000X-1.800000X-1.050000X1.800000X-1.050000X0*%
%ADD19C,3.800000*%
%ADD20Outline8P,-0.600000X0.630000X-0.480000X0.750000X0.480000X0.750000X0.600000X0.630000X0.600000X-0.630000X0.480000X-0.750000X-0.480000X-0.750000X-0.600000X-0.630000X0.000000*%
%ADD21Outline8P,-0.600000X0.630000X-0.480000X0.750000X0.480000X0.750000X0.600000X0.630000X0.600000X-0.630000X0.480000X-0.750000X-0.480000X-0.750000X-0.600000X-0.630000X180.000000*%
%ADD22RoundRect,0.102000X0.719000X0.719000X-0.719000X0.719000X-0.719000X-0.719000X0.719000X-0.719000X0*%
%ADD23C,1.642000*%
%ADD24C,2.469000*%
%ADD25C,4.200000*%
%ADD26RoundRect,0.160000X-0.240000X-1.440000X0.240000X-1.440000X0.240000X1.440000X-0.240000X1.440000X0*%
%ADD27RoundRect,0.100000X-0.150000X-1.500000X0.150000X-1.500000X0.150000X1.500000X-0.150000X1.500000X0*%
%ADD28RoundRect,0.160000X1.440000X-0.240000X1.440000X0.240000X-1.440000X0.240000X-1.440000X-0.240000X0*%
%ADD29RoundRect,0.100000X1.500000X-0.150000X1.500000X0.150000X-1.500000X0.150000X-1.500000X-0.150000X0*%
%ADD30C,7.400000*%
%ADD31C,2.500000*%
%ADD32C,3.200000*%
%ADD33RoundRect,1.000000X-0.550000X-0.000010X0.550000X-0.000010X0.550000X0.000010X-0.550000X0.000010X0*%
%ADD34RoundRect,1.000000X-0.800000X-0.000010X0.800000X-0.000010X0.800000X0.000010X-0.800000X0.000010X0*%
%ADD35C,3.100000*%
%ADD36R,1.600000X1.600000*%
%ADD37C,5.000000*%
%ADD38Outline8P,-0.750000X0.600000X-0.600000X0.750000X0.600000X0.750000X0.750000X0.600000X0.750000X-0.600000X0.600000X-0.750000X-0.600000X-0.750000X-0.750000X-0.600000X0.000000*%
%ADD39RoundRect,0.102000X-0.704000X-0.704000X0.704000X-0.704000X0.704000X0.704000X-0.704000X0.704000X0*%
%ADD40C,1.612000*%
%ADD41O,1.434000X2.934000*%
%ADD42O,2.934000X1.434000*%
%ADD43R,1.905000X2.000000*%
%ADD44O,1.905000X2.000000*%
%ADD45C,2.300000*%
%ADD46C,1.000000*%
G04 APERTURE END LIST*
D10*
%TO.C,L103*%
X285000000Y-232000000D03*
X290000000Y-232000000D03*
%TD*%
D11*
%TO.C,LC101*%
X350000000Y-219500000D03*
X350000000Y-217000000D03*
X350000000Y-214500000D03*
%TD*%
D12*
%TO.C,C115*%
X285000000Y-114250000D03*
D13*
X285000000Y-119250000D03*
%TD*%
D11*
%TO.C,LC116*%
X290000000Y-219500000D03*
X290000000Y-217000000D03*
X290000000Y-214500000D03*
%TD*%
D12*
%TO.C,C105*%
X285000000Y-91750000D03*
D13*
X285000000Y-96750000D03*
%TD*%
D11*
%TO.C,LC109*%
X298000000Y-219500000D03*
X298000000Y-217000000D03*
X298000000Y-214500000D03*
%TD*%
D14*
%TO.C,IC106*%
X107920000Y-169650000D03*
D15*
X109265000Y-169650000D03*
X110535000Y-169650000D03*
X111805000Y-169650000D03*
X113075000Y-169650000D03*
X114345000Y-169650000D03*
X115615000Y-169650000D03*
X116885000Y-169650000D03*
X118155000Y-169650000D03*
X119425000Y-169650000D03*
X120695000Y-169650000D03*
X121965000Y-169650000D03*
X123235000Y-169650000D03*
D14*
X124580000Y-169650000D03*
X124580000Y-159350000D03*
D15*
X123235000Y-159350000D03*
X121965000Y-159350000D03*
X120695000Y-159350000D03*
X119425000Y-159350000D03*
X118155000Y-159350000D03*
X116885000Y-159350000D03*
X115615000Y-159350000D03*
X114345000Y-159350000D03*
X113075000Y-159350000D03*
X111805000Y-159350000D03*
X110535000Y-159350000D03*
X109265000Y-159350000D03*
D14*
X107920000Y-159350000D03*
%TD*%
D16*
%TO.C,IC118*%
X294750000Y-104500000D03*
D13*
X297290000Y-104500000D03*
X299830000Y-104500000D03*
X302370000Y-104500000D03*
X302370000Y-96880000D03*
X299830000Y-96880000D03*
X297290000Y-96880000D03*
X294750000Y-96880000D03*
%TD*%
D11*
%TO.C,LC106*%
X342000000Y-219500000D03*
X342000000Y-217000000D03*
X342000000Y-214500000D03*
%TD*%
D16*
%TO.C,IC120*%
X295000000Y-202000000D03*
D13*
X297540000Y-202000000D03*
X300080000Y-202000000D03*
X302620000Y-202000000D03*
X305160000Y-202000000D03*
X307700000Y-202000000D03*
X310240000Y-202000000D03*
X312780000Y-202000000D03*
X312780000Y-194380000D03*
X310240000Y-194380000D03*
X307700000Y-194380000D03*
X305160000Y-194380000D03*
X302620000Y-194380000D03*
X300080000Y-194380000D03*
X297540000Y-194380000D03*
X295000000Y-194380000D03*
%TD*%
D12*
%TO.C,C117*%
X318750000Y-116750000D03*
D13*
X318750000Y-121750000D03*
%TD*%
D12*
%TO.C,C101*%
X150250000Y-109500000D03*
D13*
X150250000Y-114500000D03*
%TD*%
D12*
%TO.C,C125*%
X304000000Y-159250000D03*
D13*
X304000000Y-164250000D03*
%TD*%
D12*
%TO.C,C122*%
X310000004Y-159250000D03*
D13*
X310000004Y-164250000D03*
%TD*%
D11*
%TO.C,LC108*%
X322000000Y-219500000D03*
X322000000Y-217000000D03*
X322000000Y-214500000D03*
%TD*%
D17*
%TO.C,CN201*%
X166200000Y-58500000D03*
X160200000Y-58500000D03*
D18*
X163200000Y-63500000D03*
%TD*%
D11*
%TO.C,L120*%
X160000000Y-68475000D03*
X160000000Y-78475000D03*
X167500000Y-78475000D03*
X167500000Y-68475000D03*
%TD*%
%TO.C,LC114*%
X302000000Y-219500000D03*
X302000000Y-217000000D03*
X302000000Y-214500000D03*
%TD*%
D19*
%TO.C,CN105*%
X298000000Y-229000000D03*
X324000000Y-229000000D03*
D20*
X319000000Y-237000000D03*
X317000000Y-237000000D03*
X315000000Y-237000000D03*
X313000000Y-237000000D03*
X311000000Y-237000000D03*
D21*
X309000000Y-237000000D03*
X307000000Y-237000000D03*
X305000000Y-237000000D03*
X303000000Y-237000000D03*
X303000000Y-234500000D03*
X305000000Y-234500000D03*
X307000000Y-234500000D03*
X309000000Y-234500000D03*
D20*
X311000000Y-234500000D03*
X313000000Y-234500000D03*
X315000000Y-234500000D03*
X317000000Y-234500000D03*
X319000000Y-234500000D03*
D19*
X298500000Y-237000000D03*
D11*
X321250000Y-234500000D03*
D19*
X323500000Y-237000000D03*
%TD*%
D12*
%TO.C,C123*%
X301000000Y-169250000D03*
D13*
X301000000Y-174250000D03*
%TD*%
D14*
%TO.C,IC110*%
X231170000Y-119150000D03*
D15*
X232515000Y-119150000D03*
X233785000Y-119150000D03*
X235055000Y-119150000D03*
X236325000Y-119150000D03*
X237595000Y-119150000D03*
X238865000Y-119150000D03*
X240135000Y-119150000D03*
X241405000Y-119150000D03*
X242675000Y-119150000D03*
X243945000Y-119150000D03*
X245215000Y-119150000D03*
X246485000Y-119150000D03*
D14*
X247830000Y-119150000D03*
X247830000Y-108850000D03*
D15*
X246485000Y-108850000D03*
X245215000Y-108850000D03*
X243945000Y-108850000D03*
X242675000Y-108850000D03*
X241405000Y-108850000D03*
X240135000Y-108850000D03*
X238865000Y-108850000D03*
X237595000Y-108850000D03*
X236325000Y-108850000D03*
X235055000Y-108850000D03*
X233785000Y-108850000D03*
X232515000Y-108850000D03*
D14*
X231170000Y-108850000D03*
%TD*%
D22*
%TO.C,SW102*%
X307000000Y-87250000D03*
D23*
X305000000Y-87250000D03*
X303000000Y-87250000D03*
D24*
X310000000Y-86000000D03*
X300000000Y-86000000D03*
%TD*%
D12*
%TO.C,C103*%
X297500000Y-124250000D03*
D13*
X297500000Y-129250000D03*
%TD*%
D11*
%TO.C,LC115*%
X294000000Y-219500000D03*
X294000000Y-217000000D03*
X294000000Y-214500000D03*
%TD*%
D12*
%TO.C,C119*%
X316000004Y-159250000D03*
D13*
X316000004Y-164250000D03*
%TD*%
D12*
%TO.C,C104*%
X199500000Y-214500000D03*
D13*
X199500000Y-219500000D03*
%TD*%
D14*
%TO.C,IC107*%
X102920000Y-149550000D03*
D15*
X104265000Y-149550000D03*
X105535000Y-149550000D03*
X106805000Y-149550000D03*
X108075000Y-149550000D03*
X109345000Y-149550000D03*
X110615000Y-149550000D03*
X111885000Y-149550000D03*
X113155000Y-149550000D03*
X114425000Y-149550000D03*
X115695000Y-149550000D03*
X116965000Y-149550000D03*
X118235000Y-149550000D03*
D14*
X119580000Y-149550000D03*
X119580000Y-139250000D03*
D15*
X118235000Y-139250000D03*
X116965000Y-139250000D03*
X115695000Y-139250000D03*
X114425000Y-139250000D03*
X113155000Y-139250000D03*
X111885000Y-139250000D03*
X110615000Y-139250000D03*
X109345000Y-139250000D03*
X108075000Y-139250000D03*
X106805000Y-139250000D03*
X105535000Y-139250000D03*
X104265000Y-139250000D03*
D14*
X102920000Y-139250000D03*
%TD*%
D25*
%TO.C,HS1*%
X122000000Y-119000000D03*
X159000000Y-177000000D03*
X162000000Y-119000000D03*
%TD*%
D11*
%TO.C,LC103*%
X346000000Y-219500000D03*
X346000000Y-217000000D03*
X346000000Y-214500000D03*
%TD*%
D26*
%TO.C,IC108*%
X142150000Y-157850000D03*
D27*
X143100000Y-157850000D03*
X143900000Y-157850000D03*
X144700000Y-157850000D03*
X145500000Y-157850000D03*
X146300000Y-157850000D03*
X147100000Y-157850000D03*
X147900000Y-157850000D03*
X148700000Y-157850000D03*
X149500000Y-157850000D03*
X150300000Y-157850000D03*
X151100000Y-157850000D03*
X151900000Y-157850000D03*
X152700000Y-157850000D03*
X153500000Y-157850000D03*
X154300000Y-157850000D03*
X155100000Y-157850000D03*
X155900000Y-157850000D03*
X156700000Y-157850000D03*
X157500000Y-157850000D03*
X158300000Y-157850000D03*
X159100000Y-157850000D03*
X159900000Y-157850000D03*
D26*
X160850000Y-157850000D03*
D28*
X163350000Y-155150000D03*
D29*
X163350000Y-154200000D03*
X163350000Y-153400000D03*
X163350000Y-152600000D03*
X163350000Y-151800000D03*
X163350000Y-151000000D03*
X163350000Y-150200000D03*
X163350000Y-149400000D03*
X163350000Y-148600000D03*
X163350000Y-147800000D03*
X163350000Y-147000000D03*
X163350000Y-146200000D03*
X163350000Y-145400000D03*
X163350000Y-144600000D03*
X163350000Y-143800000D03*
D28*
X163350000Y-142850000D03*
D26*
X160850000Y-140150000D03*
D27*
X159900000Y-140150000D03*
X159100000Y-140150000D03*
X158300000Y-140150000D03*
X157500000Y-140150000D03*
X156700000Y-140150000D03*
X155900000Y-140150000D03*
X155100000Y-140150000D03*
X154300000Y-140150000D03*
X153500000Y-140150000D03*
X152700000Y-140150000D03*
X151900000Y-140150000D03*
X151100000Y-140150000D03*
X150300000Y-140150000D03*
X149500000Y-140150000D03*
X148700000Y-140150000D03*
X147900000Y-140150000D03*
X147100000Y-140150000D03*
X146300000Y-140150000D03*
X145500000Y-140150000D03*
X144700000Y-140150000D03*
X143900000Y-140150000D03*
X143100000Y-140150000D03*
D26*
X142150000Y-140150000D03*
D28*
X139650000Y-142850000D03*
D29*
X139650000Y-143800000D03*
X139650000Y-144600000D03*
X139650000Y-145400000D03*
X139650000Y-146200000D03*
X139650000Y-147000000D03*
X139650000Y-147800000D03*
X139650000Y-148600000D03*
X139650000Y-149400000D03*
X139650000Y-150200000D03*
X139650000Y-151000000D03*
X139650000Y-151800000D03*
X139650000Y-152600000D03*
X139650000Y-153400000D03*
X139650000Y-154200000D03*
D28*
X139650000Y-155150000D03*
%TD*%
D11*
%TO.C,LC111*%
X314000000Y-219500000D03*
X314000000Y-217000000D03*
X314000000Y-214500000D03*
%TD*%
D30*
%TO.C,H5*%
X87000000Y-87000000D03*
%TD*%
D11*
%TO.C,JP101*%
X165000000Y-94500000D03*
X167500000Y-94500000D03*
X170000000Y-94500000D03*
%TD*%
%TO.C,LC117*%
X274000000Y-219500000D03*
X274000000Y-217000000D03*
X274000000Y-214500000D03*
%TD*%
D12*
%TO.C,C124*%
X304000000Y-149250000D03*
D13*
X304000000Y-154250000D03*
%TD*%
D11*
%TO.C,LC102*%
X326000000Y-219500000D03*
X326000000Y-217000000D03*
X326000000Y-214500000D03*
%TD*%
D10*
%TO.C,L106*%
X254750000Y-54500000D03*
X254750000Y-59500000D03*
%TD*%
D12*
%TO.C,C111*%
X318750000Y-91750000D03*
D13*
X318750000Y-96750000D03*
%TD*%
D12*
%TO.C,C112*%
X318750000Y-104250000D03*
D13*
X318750000Y-109250000D03*
%TD*%
D30*
%TO.C,H7*%
X220000000Y-237000000D03*
%TD*%
D31*
%TO.C,CN106*%
X347500000Y-99500000D03*
X345000000Y-102000000D03*
X355000000Y-104500000D03*
X347500000Y-107000000D03*
X355000000Y-109500000D03*
X345000000Y-112000000D03*
X347500000Y-114500000D03*
%TD*%
D12*
%TO.C,C118*%
X316000000Y-149250000D03*
D13*
X316000000Y-154250000D03*
%TD*%
D32*
%TO.C,SW101*%
X130000000Y-98000000D03*
X134000000Y-98000000D03*
X138000000Y-98000000D03*
X146000000Y-98000000D03*
X146000000Y-102000000D03*
X138000000Y-102000000D03*
X134000000Y-102000000D03*
X130000000Y-102000000D03*
D33*
X126000000Y-104250000D03*
D34*
X126250000Y-95750000D03*
X149750000Y-104250000D03*
D33*
X150000000Y-95750000D03*
%TD*%
D11*
%TO.C,LC113*%
X310000000Y-219500000D03*
X310000000Y-217000000D03*
X310000000Y-214500000D03*
%TD*%
D14*
%TO.C,IC101*%
X107920000Y-212150000D03*
D15*
X109265000Y-212150000D03*
X110535000Y-212150000D03*
X111805000Y-212150000D03*
X113075000Y-212150000D03*
X114345000Y-212150000D03*
X115615000Y-212150000D03*
X116885000Y-212150000D03*
X118155000Y-212150000D03*
X119425000Y-212150000D03*
X120695000Y-212150000D03*
X121965000Y-212150000D03*
X123235000Y-212150000D03*
D14*
X124580000Y-212150000D03*
X124580000Y-201850000D03*
D15*
X123235000Y-201850000D03*
X121965000Y-201850000D03*
X120695000Y-201850000D03*
X119425000Y-201850000D03*
X118155000Y-201850000D03*
X116885000Y-201850000D03*
X115615000Y-201850000D03*
X114345000Y-201850000D03*
X113075000Y-201850000D03*
X111805000Y-201850000D03*
X110535000Y-201850000D03*
X109265000Y-201850000D03*
D14*
X107920000Y-201850000D03*
%TD*%
D12*
%TO.C,C126*%
X307000000Y-169250000D03*
D13*
X307000000Y-174250000D03*
%TD*%
D11*
%TO.C,LC107*%
X334000000Y-219500000D03*
X334000000Y-217000000D03*
X334000000Y-214500000D03*
%TD*%
D35*
%TO.C,FS101*%
X95750000Y-101000000D03*
X95750000Y-122000000D03*
%TD*%
D11*
%TO.C,LC105*%
X330000000Y-219500000D03*
X330000000Y-217000000D03*
X330000000Y-214500000D03*
%TD*%
%TO.C,LC104*%
X338000000Y-219500000D03*
X338000000Y-217000000D03*
X338000000Y-214500000D03*
%TD*%
D36*
%TO.C,OSC101*%
X332500000Y-164500000D03*
D13*
X347740000Y-164500000D03*
X347740000Y-156880000D03*
X332500000Y-156880000D03*
%TD*%
D14*
%TO.C,IC103*%
X102920000Y-192400000D03*
D15*
X104265000Y-192400000D03*
X105535000Y-192400000D03*
X106805000Y-192400000D03*
X108075000Y-192400000D03*
X109345000Y-192400000D03*
X110615000Y-192400000D03*
X111885000Y-192400000D03*
X113155000Y-192400000D03*
X114425000Y-192400000D03*
X115695000Y-192400000D03*
X116965000Y-192400000D03*
X118235000Y-192400000D03*
D14*
X119580000Y-192400000D03*
X119580000Y-182100000D03*
D15*
X118235000Y-182100000D03*
X116965000Y-182100000D03*
X115695000Y-182100000D03*
X114425000Y-182100000D03*
X113155000Y-182100000D03*
X111885000Y-182100000D03*
X110615000Y-182100000D03*
X109345000Y-182100000D03*
X108075000Y-182100000D03*
X106805000Y-182100000D03*
X105535000Y-182100000D03*
X104265000Y-182100000D03*
D14*
X102920000Y-182100000D03*
%TD*%
D11*
%TO.C,CN301*%
X111750000Y-102000000D03*
X114250000Y-102000000D03*
X116750000Y-102000000D03*
%TD*%
D30*
%TO.C,H4*%
X87000000Y-237000000D03*
%TD*%
%TO.C,H8*%
X205000000Y-102000000D03*
%TD*%
D12*
%TO.C,C121*%
X310000000Y-149250000D03*
D13*
X310000000Y-154250000D03*
%TD*%
D11*
%TO.C,LC110*%
X306000000Y-219500000D03*
X306000000Y-217000000D03*
X306000000Y-214500000D03*
%TD*%
D26*
%TO.C,IC104*%
X142150000Y-209850000D03*
D27*
X143100000Y-209850000D03*
X143900000Y-209850000D03*
X144700000Y-209850000D03*
X145500000Y-209850000D03*
X146300000Y-209850000D03*
X147100000Y-209850000D03*
X147900000Y-209850000D03*
X148700000Y-209850000D03*
X149500000Y-209850000D03*
X150300000Y-209850000D03*
X151100000Y-209850000D03*
X151900000Y-209850000D03*
X152700000Y-209850000D03*
X153500000Y-209850000D03*
X154300000Y-209850000D03*
X155100000Y-209850000D03*
X155900000Y-209850000D03*
X156700000Y-209850000D03*
X157500000Y-209850000D03*
X158300000Y-209850000D03*
X159100000Y-209850000D03*
X159900000Y-209850000D03*
D26*
X160850000Y-209850000D03*
D28*
X163350000Y-207150000D03*
D29*
X163350000Y-206200000D03*
X163350000Y-205400000D03*
X163350000Y-204600000D03*
X163350000Y-203800000D03*
X163350000Y-203000000D03*
X163350000Y-202200000D03*
X163350000Y-201400000D03*
X163350000Y-200600000D03*
X163350000Y-199800000D03*
X163350000Y-199000000D03*
X163350000Y-198200000D03*
X163350000Y-197400000D03*
X163350000Y-196600000D03*
X163350000Y-195800000D03*
D28*
X163350000Y-194850000D03*
D26*
X160850000Y-192150000D03*
D27*
X159900000Y-192150000D03*
X159100000Y-192150000D03*
X158300000Y-192150000D03*
X157500000Y-192150000D03*
X156700000Y-192150000D03*
X155900000Y-192150000D03*
X155100000Y-192150000D03*
X154300000Y-192150000D03*
X153500000Y-192150000D03*
X152700000Y-192150000D03*
X151900000Y-192150000D03*
X151100000Y-192150000D03*
X150300000Y-192150000D03*
X149500000Y-192150000D03*
X148700000Y-192150000D03*
X147900000Y-192150000D03*
X147100000Y-192150000D03*
X146300000Y-192150000D03*
X145500000Y-192150000D03*
X144700000Y-192150000D03*
X143900000Y-192150000D03*
X143100000Y-192150000D03*
D26*
X142150000Y-192150000D03*
D28*
X139650000Y-194850000D03*
D29*
X139650000Y-195800000D03*
X139650000Y-196600000D03*
X139650000Y-197400000D03*
X139650000Y-198200000D03*
X139650000Y-199000000D03*
X139650000Y-199800000D03*
X139650000Y-200600000D03*
X139650000Y-201400000D03*
X139650000Y-202200000D03*
X139650000Y-203000000D03*
X139650000Y-203800000D03*
X139650000Y-204600000D03*
X139650000Y-205400000D03*
X139650000Y-206200000D03*
D28*
X139650000Y-207150000D03*
%TD*%
D11*
%TO.C,JP201*%
X165000000Y-80975000D03*
X167500000Y-80975000D03*
X170000000Y-80975000D03*
%TD*%
%TO.C,LC120*%
X286000000Y-219500000D03*
X286000000Y-217000000D03*
X286000000Y-214500000D03*
%TD*%
D10*
%TO.C,L101*%
X116750000Y-92000000D03*
X111750000Y-92000000D03*
%TD*%
D12*
%TO.C,C106*%
X285000000Y-104250000D03*
D13*
X285000000Y-109250000D03*
%TD*%
D26*
%TO.C,IC111*%
X227650000Y-94850000D03*
D27*
X228600000Y-94850000D03*
X229400000Y-94850000D03*
X230200000Y-94850000D03*
X231000000Y-94850000D03*
X231800000Y-94850000D03*
X232600000Y-94850000D03*
X233400000Y-94850000D03*
X234200000Y-94850000D03*
X235000000Y-94850000D03*
X235800000Y-94850000D03*
X236600000Y-94850000D03*
X237400000Y-94850000D03*
X238200000Y-94850000D03*
X239000000Y-94850000D03*
X239800000Y-94850000D03*
X240600000Y-94850000D03*
X241400000Y-94850000D03*
X242200000Y-94850000D03*
X243000000Y-94850000D03*
X243800000Y-94850000D03*
X244600000Y-94850000D03*
X245400000Y-94850000D03*
D26*
X246350000Y-94850000D03*
D28*
X248850000Y-92150000D03*
D29*
X248850000Y-91200000D03*
X248850000Y-90400000D03*
X248850000Y-89600000D03*
X248850000Y-88800000D03*
X248850000Y-88000000D03*
X248850000Y-87200000D03*
X248850000Y-86400000D03*
X248850000Y-85600000D03*
X248850000Y-84800000D03*
X248850000Y-84000000D03*
X248850000Y-83200000D03*
X248850000Y-82400000D03*
X248850000Y-81600000D03*
X248850000Y-80800000D03*
D28*
X248850000Y-79850000D03*
D26*
X246350000Y-77150000D03*
D27*
X245400000Y-77150000D03*
X244600000Y-77150000D03*
X243800000Y-77150000D03*
X243000000Y-77150000D03*
X242200000Y-77150000D03*
X241400000Y-77150000D03*
X240600000Y-77150000D03*
X239800000Y-77150000D03*
X239000000Y-77150000D03*
X238200000Y-77150000D03*
X237400000Y-77150000D03*
X236600000Y-77150000D03*
X235800000Y-77150000D03*
X235000000Y-77150000D03*
X234200000Y-77150000D03*
X233400000Y-77150000D03*
X232600000Y-77150000D03*
X231800000Y-77150000D03*
X231000000Y-77150000D03*
X230200000Y-77150000D03*
X229400000Y-77150000D03*
X228600000Y-77150000D03*
D26*
X227650000Y-77150000D03*
D28*
X225150000Y-79850000D03*
D29*
X225150000Y-80800000D03*
X225150000Y-81600000D03*
X225150000Y-82400000D03*
X225150000Y-83200000D03*
X225150000Y-84000000D03*
X225150000Y-84800000D03*
X225150000Y-85600000D03*
X225150000Y-86400000D03*
X225150000Y-87200000D03*
X225150000Y-88000000D03*
X225150000Y-88800000D03*
X225150000Y-89600000D03*
X225150000Y-90400000D03*
X225150000Y-91200000D03*
D28*
X225150000Y-92150000D03*
%TD*%
D37*
%TO.C,CN102*%
X186940000Y-37500000D03*
X252940000Y-37500000D03*
D38*
X247880000Y-34960000D03*
X245340000Y-34960000D03*
X242800000Y-34960000D03*
X240260000Y-34960000D03*
X237720000Y-34960000D03*
X235180000Y-34960000D03*
X232640000Y-34960000D03*
X230100000Y-34960000D03*
X227560000Y-34960000D03*
X225020000Y-34960000D03*
X222480000Y-34960000D03*
X219940000Y-34960000D03*
X217400000Y-34960000D03*
X214860000Y-34960000D03*
X212320000Y-34960000D03*
X209780000Y-34960000D03*
X207240000Y-34960000D03*
X204700000Y-34960000D03*
X202160000Y-34960000D03*
X199620000Y-34960000D03*
X197080000Y-34960000D03*
X194540000Y-34960000D03*
X192000000Y-34960000D03*
X247880000Y-37500000D03*
X245340000Y-37500000D03*
X242800000Y-37500000D03*
X240260000Y-37500000D03*
X237720000Y-37500000D03*
X235180000Y-37500000D03*
X232640000Y-37500000D03*
X230100000Y-37500000D03*
X227560000Y-37500000D03*
X225020000Y-37500000D03*
X222480000Y-37500000D03*
X219940000Y-37500000D03*
X217400000Y-37500000D03*
X214860000Y-37500000D03*
X212320000Y-37500000D03*
X209780000Y-37500000D03*
X207240000Y-37500000D03*
X204700000Y-37500000D03*
X202160000Y-37500000D03*
X199620000Y-37500000D03*
X197080000Y-37500000D03*
X194540000Y-37500000D03*
X192000000Y-37500000D03*
X247880000Y-40040000D03*
X245340000Y-40040000D03*
X242800000Y-40040000D03*
X240260000Y-40040000D03*
X237720000Y-40040000D03*
X235180000Y-40040000D03*
X232640000Y-40040000D03*
X230100000Y-40040000D03*
X227560000Y-40040000D03*
X225020000Y-40040000D03*
X222480000Y-40040000D03*
X219940000Y-40040000D03*
X217400000Y-40040000D03*
X214860000Y-40040000D03*
X212320000Y-40040000D03*
X209780000Y-40040000D03*
X207240000Y-40040000D03*
X204700000Y-40040000D03*
X202160000Y-40040000D03*
X199620000Y-40040000D03*
X197080000Y-40040000D03*
X194540000Y-40040000D03*
X192000000Y-40040000D03*
%TD*%
D26*
%TO.C,IC105*%
X195078872Y-140823761D03*
D27*
X196028872Y-140823761D03*
X196828872Y-140823761D03*
X197628872Y-140823761D03*
X198428872Y-140823761D03*
X199228872Y-140823761D03*
X200028872Y-140823761D03*
X200828872Y-140823761D03*
X201628872Y-140823761D03*
X202428872Y-140823761D03*
X203228872Y-140823761D03*
X204028872Y-140823761D03*
X204828872Y-140823761D03*
X205628872Y-140823761D03*
X206428872Y-140823761D03*
X207228872Y-140823761D03*
X208028872Y-140823761D03*
X208828872Y-140823761D03*
X209628872Y-140823761D03*
X210428872Y-140823761D03*
X211228872Y-140823761D03*
X212028872Y-140823761D03*
X212828872Y-140823761D03*
D26*
X213778872Y-140823761D03*
D28*
X216278872Y-138123761D03*
D29*
X216278872Y-137173761D03*
X216278872Y-136373761D03*
X216278872Y-135573761D03*
X216278872Y-134773761D03*
X216278872Y-133973761D03*
X216278872Y-133173761D03*
X216278872Y-132373761D03*
X216278872Y-131573761D03*
X216278872Y-130773761D03*
X216278872Y-129973761D03*
X216278872Y-129173761D03*
X216278872Y-128373761D03*
X216278872Y-127573761D03*
X216278872Y-126773761D03*
D28*
X216278872Y-125823761D03*
D26*
X213778872Y-123123761D03*
D27*
X212828872Y-123123761D03*
X212028872Y-123123761D03*
X211228872Y-123123761D03*
X210428872Y-123123761D03*
X209628872Y-123123761D03*
X208828872Y-123123761D03*
X208028872Y-123123761D03*
X207228872Y-123123761D03*
X206428872Y-123123761D03*
X205628872Y-123123761D03*
X204828872Y-123123761D03*
X204028872Y-123123761D03*
X203228872Y-123123761D03*
X202428872Y-123123761D03*
X201628872Y-123123761D03*
X200828872Y-123123761D03*
X200028872Y-123123761D03*
X199228872Y-123123761D03*
X198428872Y-123123761D03*
X197628872Y-123123761D03*
X196828872Y-123123761D03*
X196028872Y-123123761D03*
D26*
X195078872Y-123123761D03*
D28*
X192578872Y-125823761D03*
D29*
X192578872Y-126773761D03*
X192578872Y-127573761D03*
X192578872Y-128373761D03*
X192578872Y-129173761D03*
X192578872Y-129973761D03*
X192578872Y-130773761D03*
X192578872Y-131573761D03*
X192578872Y-132373761D03*
X192578872Y-133173761D03*
X192578872Y-133973761D03*
X192578872Y-134773761D03*
X192578872Y-135573761D03*
X192578872Y-136373761D03*
X192578872Y-137173761D03*
D28*
X192578872Y-138123761D03*
%TD*%
D10*
%TO.C,D102*%
X104250000Y-102000000D03*
X104250000Y-92000000D03*
%TD*%
D11*
%TO.C,LC118*%
X278000000Y-219500000D03*
X278000000Y-217000000D03*
X278000000Y-214500000D03*
%TD*%
D39*
%TO.C,CN104*%
X340550000Y-235700000D03*
D40*
X337950000Y-235700000D03*
X342500000Y-235700000D03*
X340550000Y-233200000D03*
X336000000Y-235700000D03*
X342500000Y-233200000D03*
X338350000Y-233200000D03*
X336000000Y-233200000D03*
D41*
X332500000Y-238700000D03*
D42*
X339250000Y-239500000D03*
D41*
X346000000Y-238700000D03*
%TD*%
D12*
%TO.C,C102*%
X134250000Y-109500000D03*
D13*
X134250000Y-114500000D03*
%TD*%
D12*
%TO.C,C120*%
X295000000Y-169250000D03*
D13*
X295000000Y-174250000D03*
%TD*%
D10*
%TO.C,L104*%
X325000000Y-176750000D03*
X325000000Y-171750000D03*
%TD*%
%TO.C,L102*%
X345000000Y-224500000D03*
X350000000Y-224500000D03*
%TD*%
D11*
%TO.C,LC112*%
X318000000Y-219500000D03*
X318000000Y-217000000D03*
X318000000Y-214500000D03*
%TD*%
D30*
%TO.C,H6*%
X353000000Y-237000000D03*
%TD*%
D12*
%TO.C,C107*%
X285000000Y-124250000D03*
D13*
X285000000Y-129250000D03*
%TD*%
D26*
%TO.C,IC119*%
X270400000Y-157850000D03*
D27*
X271350000Y-157850000D03*
X272150000Y-157850000D03*
X272950000Y-157850000D03*
X273750000Y-157850000D03*
X274550000Y-157850000D03*
X275350000Y-157850000D03*
X276150000Y-157850000D03*
X276950000Y-157850000D03*
X277750000Y-157850000D03*
X278550000Y-157850000D03*
X279350000Y-157850000D03*
X280150000Y-157850000D03*
X280950000Y-157850000D03*
X281750000Y-157850000D03*
X282550000Y-157850000D03*
X283350000Y-157850000D03*
X284150000Y-157850000D03*
X284950000Y-157850000D03*
X285750000Y-157850000D03*
X286550000Y-157850000D03*
X287350000Y-157850000D03*
X288150000Y-157850000D03*
D26*
X289100000Y-157850000D03*
D28*
X291600000Y-155150000D03*
D29*
X291600000Y-154200000D03*
X291600000Y-153400000D03*
X291600000Y-152600000D03*
X291600000Y-151800000D03*
X291600000Y-151000000D03*
X291600000Y-150200000D03*
X291600000Y-149400000D03*
X291600000Y-148600000D03*
X291600000Y-147800000D03*
X291600000Y-147000000D03*
X291600000Y-146200000D03*
X291600000Y-145400000D03*
X291600000Y-144600000D03*
X291600000Y-143800000D03*
D28*
X291600000Y-142850000D03*
D26*
X289100000Y-140150000D03*
D27*
X288150000Y-140150000D03*
X287350000Y-140150000D03*
X286550000Y-140150000D03*
X285750000Y-140150000D03*
X284950000Y-140150000D03*
X284150000Y-140150000D03*
X283350000Y-140150000D03*
X282550000Y-140150000D03*
X281750000Y-140150000D03*
X280950000Y-140150000D03*
X280150000Y-140150000D03*
X279350000Y-140150000D03*
X278550000Y-140150000D03*
X277750000Y-140150000D03*
X276950000Y-140150000D03*
X276150000Y-140150000D03*
X275350000Y-140150000D03*
X274550000Y-140150000D03*
X273750000Y-140150000D03*
X272950000Y-140150000D03*
X272150000Y-140150000D03*
X271350000Y-140150000D03*
D26*
X270400000Y-140150000D03*
D28*
X267900000Y-142850000D03*
D29*
X267900000Y-143800000D03*
X267900000Y-144600000D03*
X267900000Y-145400000D03*
X267900000Y-146200000D03*
X267900000Y-147000000D03*
X267900000Y-147800000D03*
X267900000Y-148600000D03*
X267900000Y-149400000D03*
X267900000Y-150200000D03*
X267900000Y-151000000D03*
X267900000Y-151800000D03*
X267900000Y-152600000D03*
X267900000Y-153400000D03*
X267900000Y-154200000D03*
D28*
X267900000Y-155150000D03*
%TD*%
D30*
%TO.C,H1*%
X160000000Y-27000000D03*
%TD*%
%TO.C,H3*%
X280000000Y-27000000D03*
%TD*%
D43*
%TO.C,IC102*%
X147290000Y-122750000D03*
D44*
X144750000Y-122750000D03*
X142210000Y-122750000D03*
%TD*%
D19*
%TO.C,CN103*%
X187000000Y-190000000D03*
D45*
X187000000Y-196500000D03*
D19*
X253000000Y-190000000D03*
D46*
X253000000Y-196500000D03*
D38*
X243495000Y-194040000D03*
X242225000Y-191500000D03*
X240955000Y-194040000D03*
X239685000Y-191500000D03*
X238415000Y-194040000D03*
X237145000Y-191500000D03*
X235875000Y-194040000D03*
X234605000Y-191500000D03*
X233335000Y-194040000D03*
X232065000Y-191500000D03*
X230795000Y-194040000D03*
X229525000Y-191500000D03*
X228255000Y-194040000D03*
X226985000Y-191500000D03*
X225715000Y-194040000D03*
X224445000Y-191500000D03*
X223175000Y-194040000D03*
X221905000Y-191500000D03*
X220635000Y-194040000D03*
X219365000Y-191500000D03*
X218095000Y-194040000D03*
X216825000Y-191500000D03*
X215555000Y-194040000D03*
X214285000Y-191500000D03*
X213015000Y-194040000D03*
X211745000Y-191500000D03*
X210475000Y-194040000D03*
X209205000Y-191500000D03*
X207935000Y-194040000D03*
X206665000Y-191500000D03*
X205395000Y-194040000D03*
X204125000Y-191500000D03*
X202855000Y-194040000D03*
X201585000Y-191500000D03*
X200315000Y-194040000D03*
X199045000Y-191500000D03*
X197775000Y-194040000D03*
X196505000Y-191500000D03*
%TD*%
D11*
%TO.C,LC119*%
X282000000Y-219500000D03*
X282000000Y-217000000D03*
X282000000Y-214500000D03*
%TD*%
D10*
%TO.C,L105*%
X197000000Y-54500000D03*
X197000000Y-59500000D03*
%TD*%
D30*
%TO.C,H2*%
X353000000Y-87000000D03*
%TD*%
M02*
